<?xml version="1.0" encoding="utf-8"?>
<!-- Generator: Adobe Illustrator 28.3.0, SVG Export Plug-In . SVG Version: 6.00 Build 0)  -->
<svg version="1.1" id="background" xmlns="http://www.w3.org/2000/svg" xmlns:xlink="http://www.w3.org/1999/xlink" x="0px" y="0px"
	 viewBox="0 0 1920 1024" style="enable-background:new 0 0 1920 1024;" xml:space="preserve">
<style type="text/css">
	.st0{clip-path:url(#SVGID_00000008832940184187913040000010780726455308309384_);}
	.st1{fill:url(#SVGID_00000177461081510897102090000006459827676909504918_);}
	.st2{fill:url(#background-light_00000085959634042949557710000002759082116593417385_);}
	.st3{clip-path:url(#SVGID_00000077287531650153565330000004930688124478928281_);}
	.st4{fill:url(#SVGID_00000116232838146165309110000003281296391817458853_);}
	.st5{clip-path:url(#SVGID_00000045612641292076070540000008999379942761298354_);}
	.st6{fill:url(#SVGID_00000168836593905949380270000002415894362963054763_);}
	.st7{opacity:0.7;}
	.st8{opacity:0.3;fill:url(#SVGID_00000163042204720012307240000015731705537201681557_);enable-background:new    ;}
	.st9{fill:#FEFEFC;}
	.st10{fill:#FAB76F;}
	.st11{fill:#B3CEE9;}
	.st12{fill:#9D6AFB;}
	.st13{fill:#B8AAF5;}
	.st14{fill:#FFFFFF;}
	.st15{clip-path:url(#SVGID_00000040551356078734447840000004628294720780891021_);}
	.st16{fill:url(#SVGID_00000145053357368162477010000004307705966108599691_);}
	.st17{opacity:0.3;}
	.st18{fill:url(#SVGID_00000147941950271475985250000000457028882905338754_);}
	.st19{clip-path:url(#SVGID_00000128460565623061365150000012012924706269621651_);}
	.st20{fill:url(#SVGID_00000008142220260676271010000011685256097673520553_);}
	.st21{clip-path:url(#SVGID_00000097501413155977586630000002757811492272253363_);}
	.st22{fill:url(#SVGID_00000096743170595620067930000018434761956329432969_);}
	.st23{opacity:0.2;fill:#C4DBFB;enable-background:new    ;}
	.st24{clip-path:url(#SVGID_00000145765430696354572130000008001653428057157792_);}
	.st25{fill:url(#SVGID_00000104687884199868421710000007449897748913479318_);}
	.st26{opacity:0.3;fill:url(#SVGID_00000146467436407270132480000016455082063333141903_);enable-background:new    ;}
	.st27{clip-path:url(#SVGID_00000072254994849768494940000016108556235491951039_);}
	.st28{fill:url(#SVGID_00000047773989699773459920000008819196010476040846_);}
	.st29{opacity:0.3;fill:url(#SVGID_00000013178547406875415280000005665636042241481615_);enable-background:new    ;}
	.st30{clip-path:url(#SVGID_00000111895046035571617530000007562621066448373431_);}
	.st31{fill:url(#SVGID_00000008834822947186480060000003390871846995371147_);}
	.st32{opacity:0.1;fill:#D45CD5;enable-background:new    ;}
	.st33{clip-path:url(#SVGID_00000173126507622472058800000015066437608618429353_);fill:#FEFEFC;}
	.st34{clip-path:url(#SVGID_00000130641139132629158540000008397141550426886288_);}
</style>
<defs>
	<rect id="SVGID_1_" x="0.5" y="0.2" width="1919" height="1023.8"/>
</defs>
<clipPath id="SVGID_00000152228125036666195980000015387077965750323871_">
	<use xlink:href="#SVGID_1_"  style="overflow:visible;"/>
</clipPath>
<g id="background_x5F_fixed" style="clip-path:url(#SVGID_00000152228125036666195980000015387077965750323871_);">
	
		<linearGradient id="SVGID_00000069394915259702949910000016671796899740105385_" gradientUnits="userSpaceOnUse" x1="960.9137" y1="148.5457" x2="958.9138" y2="944.869" gradientTransform="matrix(1 0 0 -1 0 1024)">
		<stop  offset="0" style="stop-color:#968BDD"/>
		<stop  offset="1" style="stop-color:#E0B6E9"/>
	</linearGradient>
	<rect y="-0.2" style="fill:url(#SVGID_00000069394915259702949910000016671796899740105385_);" width="1920" height="1023.8"/>
	
		<linearGradient id="background-light_00000129183252198681229040000013519971889057803393_" gradientUnits="userSpaceOnUse" x1="292.8529" y1="647.8907" x2="538.6728" y2="-288.2892" gradientTransform="matrix(1 0 0 -1 0 1024)">
		<stop  offset="0" style="stop-color:#C4B6E9"/>
		<stop  offset="1" style="stop-color:#C4B6E9;stop-opacity:0"/>
	</linearGradient>
	<path id="background-light" style="fill:url(#background-light_00000129183252198681229040000013519971889057803393_);" d="
		M416.2,1378.7c-142.4,0-276.2-55.4-376.9-156.1s-156.1-234.5-156.1-376.9s55.4-276.2,156.1-376.9s234.5-156.1,376.9-156.1
		s276.2,55.4,376.9,156.1s156.1,234.5,156.1,376.9s-55.4,276.2-156.1,376.9S558.5,1378.7,416.2,1378.7L416.2,1378.7z M416.2,353.7
		c-131.4,0-255,51.2-347.9,144.1S-75.9,714.3-75.9,845.7s51.2,255,144.1,347.9s216.5,144.1,347.9,144.1s255-51.2,347.9-144.1
		c92.9-92.9,144.1-216.5,144.1-347.9s-51.2-255-144.1-347.9S547.6,353.7,416.2,353.7L416.2,353.7z"/>
	<g id="background-wave">
		<defs>
			<path id="SVGID_00000156545771445809032390000004198669506799658431_" d="M-34.9,733.5c51.4-21.8,116.6-12.1,158,23.6
				c12,10.3,22.2,22.7,36.4,30.3c38.5,20.7,88-1.2,131.4,8C364.4,810.9,396,907.5,471,914.5c30.6,2.9,61.2-10.2,90-18.1
				c42.4-11.7,88.9-23.2,129.5-7.1c37.2,14.6,64.4,50.8,104.6,54.3c32.3,2.8,61.2-16.4,90.5-29.4c69.1-30.6,152.4-25.6,219.1,8.4
				c48.9,24.9,87.6,65.4,113.1,111.4H-63.5L-34.9,733.5L-34.9,733.5z"/>
		</defs>
		<clipPath id="SVGID_00000025409895800634880430000012128123478408867253_">
			<use xlink:href="#SVGID_00000156545771445809032390000004198669506799658431_"  style="overflow:visible;"/>
		</clipPath>
		<g style="clip-path:url(#SVGID_00000025409895800634880430000012128123478408867253_);">
			
				<linearGradient id="SVGID_00000016768189973124793510000013783160960469244845_" gradientUnits="userSpaceOnUse" x1="596.8895" y1="160.3174" x2="538.2294" y2="-56.4725" gradientTransform="matrix(1 0 0 -1 0 1024)">
				<stop  offset="0" style="stop-color:#E9E0FD"/>
				<stop  offset="4.000000e-02" style="stop-color:#E8DEFD"/>
				<stop  offset="0.5" style="stop-color:#E1D3FD"/>
				<stop  offset="1" style="stop-color:#DFD0FD"/>
			</linearGradient>
			<path style="fill:url(#SVGID_00000016768189973124793510000013783160960469244845_);" d="M-34.9,733.5
				c51.4-21.8,116.6-12.1,158,23.6c12,10.3,22.2,22.7,36.4,30.3c38.5,20.7,88-1.2,131.4,8C364.4,810.9,396,907.5,471,914.5
				c30.6,2.9,61.2-10.2,90-18.1c42.4-11.7,88.9-23.2,129.5-7.1c37.2,14.6,64.4,50.8,104.6,54.3c32.3,2.8,61.2-16.4,90.5-29.4
				c69.1-30.6,152.4-25.6,219.1,8.4c48.9,24.9,87.6,65.4,113.1,111.4H-63.5L-34.9,733.5L-34.9,733.5z"/>
			<g>
				
					<image style="overflow:visible;enable-background:new    ;" width="1326" height="385" xlink:href="AF2721AC.png"  transform="matrix(1 0 0 1 -71.5 680)">
				</image>
			</g>
		</g>
	</g>
	<g id="background-planet">
		<defs>
			<path id="SVGID_00000137824599430481523100000018061422942387398326_" d="M247.7,1720c5.4-11.5,10.9-22.8,16.4-33.8
				c49.8-101.1,119.4-213.9,217.2-327.6c0,0,0,0,0,0c46.3-56.2,113.7-127.2,206.5-201.4c22.4-18.5,48.1-38,74.3-56.7
				c6.4-4.6,12.8-9.1,19.1-13.5c2.5-1.7,5-3.3,7.5-5c7.3-5,14.5-9.8,21.5-14.6c37.5-25,74.7-47.5,111.4-67.6
				c11.9-6.6,23.9-13.2,35.9-19.5c1.5-0.8,3-1.5,4.5-2.3c8.6-4.5,17.2-8.8,25.6-12.9c69.9-35,137.3-61.2,200.7-81.5
				c12-4,24.2-7.7,36.3-11.3c5.3-1.7,10.4-3.2,15.6-4.7c5-1.4,9.9-3,14.9-4.4c2.3-0.6,4.3-1.1,6.6-1.8c2.4-0.7,4.9-1.4,7.2-2.1
				c4.3-1.2,8.9-2.3,13.4-3.5c82.4-21.6,147.3-32.3,200.9-39.3c1.5-0.2,3-0.5,4.5-0.7c-0.7,0.1-1.4,0.2-2,0.3
				c5.5-0.7,11-1.4,16.2-2.1c22.1-3,47.7-5,73.7-6.5c14.2-1.2,28.2-2.3,40.6-2.8c33.5-1.6,78.2-2.5,111.7-1.2c0.3,0,0.7,0,1,0
				c16.2,0.4,32.4,1,47.9,1.9c0.2,0,0.4,0,0.5,0c0.4,0,0.9,0.1,1.4,0.1c9.3,0.5,18.6,1.1,27,1.7c12.1,0.9,23.4,2.1,34.8,3.2
				c35.1,3,71,7.5,108,13.5c0.3,0.1,0.7,0.1,1,0.2c29.1,4.8,58.7,10.3,89.1,17.4c153,33.5,298.4,90,435.7,168.7
				c71.3,39.3,150.2,92.6,229.6,158.9l8.9,7.3l0,0l0,0l0,0c0.1,0.1,0.2,0.2,0.3,0.3c0.3,0.2,0.5,0.4,0.8,0.7
				c21.3,17.9,42.1,36.2,64.2,57c14.8,13.6,31.4,30.1,45.3,44.4c0.3,0.3,0.6,0.6,0.8,0.9c1.4,1.4,2.9,3,4.2,4.4l0,0c0,0,0,0,0,0
				c0.1,0.1,0.1,0.1,0.2,0.2c22.7,23.5,32.9,34.1,48.9,52.6c1.9,2.1,3.8,4.2,5.4,6.1c0,0,0.1,0.1,0.1,0.1
				c18,20.1,30.2,34.5,45.2,53.6c9.7,12,19.3,24.2,28.7,36.6c0.6,0.7,1.1,1.5,1.7,2.2c12.1,15.9,23.9,32.2,35.5,48.8
				c0.4,0.6,0.9,1.2,1.3,1.9c10.1,14.4,19.9,29.1,29.6,44c6.9,10.6,13.2,20.9,19.6,31.2c2.4,4,5,7.8,7.4,11.9
				c63.9,105.7,102.7,197,124,255.7c2.3,6.2,3.9,10.7,4.8,13.2c0,0,0,0.1,0.1,0.1c10,27,18.7,52.3,25,72.7c2.1,6.6,4.2,13.7,6.4,21
				c0.2,0.5,0.4,1.2,0.6,1.7l0.5,1.8c10.4,34.5,22.4,77.7,34.1,135.3c57,268.4,42.5,540.5-41.6,799c-2.4,7.4-4.7,14.9-7.2,22.4
				c-0.3,0.9-0.6,1.9-0.9,2.8c-13.2,39.8-28.2,79.9-42.8,112.8c-0.9,2.1-1.9,4.3-2.9,6.4c-11.5,26.4-24.9,55-39.2,83.8
				c-2.1,4.7-4.3,9.5-6.4,13.9l-8,14.2c-5.1,9.9-10.3,19.6-15.5,29.2c-12.5,23.3-25.1,45.5-37.4,65.1
				c-10.9,17.7-21.8,34.4-32.7,50.8c-1.3,1.9-2.5,3.8-3.8,5.7c-3.8,5.7-7.6,11.3-11.4,16.8c-6.3,9.2-12.4,17.9-18.4,26.1
				c-0.4,0.6-0.8,1.2-1.2,1.8c-0.5,0.7-1.1,1.5-1.5,2.2c-156.1,219.2-362.6,390.9-606.6,504.4c-6.2,3-12.4,5.8-18.6,8.7
				c-2.8,1.2-5.5,2.6-8.3,3.8c-9.1,4.1-17.9,7.8-26.4,11.3c-198.7,86.2-401.4,124.9-594.1,128.4c-332.4,10.1-627.7-79.2-859.6-231.3
				c-0.2-0.1-0.5-0.3-0.7-0.4c-2.2-1.3-4.3-2.6-6.5-4c-11.1-6.8-22.3-14-33.9-21.6c-4.4-2.9-8.8-5.7-13.1-8.6
				c-6.1-4.1-11.9-8-17.5-11.8l0,0c0,0,0,0,0,0c-0.2-0.1-0.3-0.2-0.5-0.3c0,0,0,0,0,0l0,0c-7.1-4.8-13.6-9.4-19.7-13.7
				c-0.3-0.2-0.6-0.4-0.9-0.6c-26-18.4-42.3-31-43.6-32c0,0,0,0,0,0c0,0,0,0,0,0c-21.8-16.1-35.2-26.7-57.4-45.8
				c-1.2-1-2.6-2.1-3.8-3.1l0,0l0,0c0,0,0,0,0,0l-0.1-0.1c0,0-0.1-0.1-0.1-0.1c-1.6-1.4-3.1-2.8-4.8-4.2c-1.5-1.4-3.1-2.7-4.7-4.1
				c-8.8-7.5-17.9-15.4-27.5-23.9l-4.3-3.6l-15.8-14.5c-0.4-0.4-0.9-0.8-1.3-1.2l-0.5-0.4c-16.1-14.3-35.8-33.9-51.7-50.3
				c-0.3-0.3-0.5-0.5-0.8-0.8c-1.5-1.5-3.1-3.2-4.6-4.7c-2.9-3.1-5.6-5.8-8.2-8.5c-0.7-0.8-1.4-1.5-2.1-2.2
				c-16.5-17.1-26-27.3-40.3-43.8c-1.3-1.5-2.8-3.1-4-4.5c-0.2-0.3-0.5-0.6-0.8-0.9c-9.8-11.2-19.7-22.8-29.7-34.8
				c-4-4.8-7.7-9.6-11.6-14.3c-4.5-5.5-8.9-11-13.4-16.7c-4.8-5.8-9.7-12.3-14.8-19c-18.9-24.8-36.3-49.1-52.6-73.2
				c-0.4-0.6-0.8-1.2-1.2-1.8c-90.9-134.3-142.6-253.8-168.5-324.9c-2.3-6.2-3.9-10.7-4.8-13.2c-6.7-19-13-37.3-19.3-56.2
				c-1.9-5.6-3.8-11-5.7-16.7c-7.5-21.9-18-58.7-28.3-100.7c-20.1-80.5-33.3-160.5-39.6-238.3c-1.1-12.1-2-23.9-2.6-35
				c-0.7-8.4-1.2-17.6-1.6-27c-10.2-176.6,10.8-325.3,39.4-439.5c2.3-9.3,4.6-18.5,6.9-27.1c0.4-1.3,0.8-2.9,1.2-4.3
				c26.2-104,60.7-196.2,98.1-276.6C246.3,1722.8,247,1721.4,247.7,1720L247.7,1720z"/>
		</defs>
		<clipPath id="SVGID_00000168097752047310757460000004106193218463149199_">
			<use xlink:href="#SVGID_00000137824599430481523100000018061422942387398326_"  style="overflow:visible;"/>
		</clipPath>
		<g style="clip-path:url(#SVGID_00000168097752047310757460000004106193218463149199_);">
			
				<linearGradient id="SVGID_00000109726237995121840990000011202319125041449607_" gradientUnits="userSpaceOnUse" x1="1857.968" y1="194.1556" x2="1656.088" y2="-1677.0844" gradientTransform="matrix(1 0 0 -1 0 1024)">
				<stop  offset="0" style="stop-color:#7155F5"/>
				<stop  offset="0.15" style="stop-color:#6C50E8"/>
				<stop  offset="0.42" style="stop-color:#6043C8"/>
				<stop  offset="0.79" style="stop-color:#4E2F95"/>
				<stop  offset="0.97" style="stop-color:#442479"/>
			</linearGradient>
			<path style="fill:url(#SVGID_00000109726237995121840990000011202319125041449607_);" d="M247.7,1720
				c5.4-11.5,10.9-22.8,16.4-33.8c49.8-101.1,119.4-213.9,217.2-327.6c0,0,0,0,0,0c46.3-56.2,113.7-127.2,206.5-201.4
				c22.4-18.5,48.1-38,74.3-56.7c6.4-4.6,12.8-9.1,19.1-13.5c2.5-1.7,5-3.3,7.5-5c7.3-5,14.5-9.8,21.5-14.6
				c37.5-25,74.7-47.5,111.4-67.6c11.9-6.6,23.9-13.2,35.9-19.5c1.5-0.8,3-1.5,4.5-2.3c8.6-4.5,17.2-8.8,25.6-12.9
				c69.9-35,137.3-61.2,200.7-81.5c12-4,24.2-7.7,36.3-11.3c5.3-1.7,10.4-3.2,15.6-4.7c5-1.4,9.9-3,14.9-4.4
				c2.3-0.6,4.3-1.1,6.6-1.8c2.4-0.7,4.9-1.4,7.2-2.1c4.3-1.2,8.9-2.3,13.4-3.5c82.4-21.6,147.3-32.3,200.9-39.3
				c1.5-0.2,3-0.5,4.5-0.7c-0.7,0.1-1.4,0.2-2,0.3c5.5-0.7,11-1.4,16.2-2.1c22.1-3,47.7-5,73.7-6.5c14.2-1.2,28.2-2.3,40.6-2.8
				c33.5-1.6,78.2-2.5,111.7-1.2c0.3,0,0.7,0,1,0c16.2,0.4,32.4,1,47.9,1.9c0.2,0,0.4,0,0.5,0c0.4,0,0.9,0.1,1.4,0.1
				c9.3,0.5,18.6,1.1,27,1.7c12.1,0.9,23.4,2.1,34.8,3.2c35.1,3,71,7.5,108,13.5c0.3,0.1,0.7,0.1,1,0.2
				c29.1,4.8,58.7,10.3,89.1,17.4c153,33.5,298.4,90,435.7,168.7c71.3,39.3,150.2,92.6,229.6,158.9l8.9,7.3l0,0l0,0l0,0
				c0.1,0.1,0.2,0.2,0.3,0.3c0.3,0.2,0.5,0.4,0.8,0.7c21.3,17.9,42.1,36.2,64.2,57c14.8,13.6,31.4,30.1,45.3,44.4
				c0.3,0.3,0.6,0.6,0.8,0.9c1.4,1.4,2.9,3,4.2,4.4l0,0c0,0,0,0,0,0c0.1,0.1,0.1,0.1,0.2,0.2c22.7,23.5,32.9,34.1,48.9,52.6
				c1.9,2.1,3.8,4.2,5.4,6.1c0,0,0.1,0.1,0.1,0.1c18,20.1,30.2,34.5,45.2,53.6c9.7,12,19.3,24.2,28.7,36.6c0.6,0.7,1.1,1.5,1.7,2.2
				c12.1,15.9,23.9,32.2,35.5,48.8c0.4,0.6,0.9,1.2,1.3,1.9c10.1,14.4,19.9,29.1,29.6,44c6.9,10.6,13.2,20.9,19.6,31.2
				c2.4,4,5,7.8,7.4,11.9c63.9,105.7,102.7,197,124,255.7c2.3,6.2,3.9,10.7,4.8,13.2c0,0,0,0.1,0.1,0.1c10,27,18.7,52.3,25,72.7
				c2.1,6.6,4.2,13.7,6.4,21c0.2,0.5,0.4,1.2,0.6,1.7l0.5,1.8c10.4,34.5,22.4,77.7,34.1,135.3c57,268.4,42.5,540.5-41.6,799
				c-2.4,7.4-4.7,14.9-7.2,22.4c-0.3,0.9-0.6,1.9-0.9,2.8c-13.2,39.8-28.2,79.9-42.8,112.8c-0.9,2.1-1.9,4.3-2.9,6.4
				c-11.5,26.4-24.9,55-39.2,83.8c-2.1,4.7-4.3,9.5-6.4,13.9l-8,14.2c-5.1,9.9-10.3,19.6-15.5,29.2c-12.5,23.3-25.1,45.5-37.4,65.1
				c-10.9,17.7-21.8,34.4-32.7,50.8c-1.3,1.9-2.5,3.8-3.8,5.7c-3.8,5.7-7.6,11.3-11.4,16.8c-6.3,9.2-12.4,17.9-18.4,26.1
				c-0.4,0.6-0.8,1.2-1.2,1.8c-0.5,0.7-1.1,1.5-1.5,2.2c-156.1,219.2-362.6,390.9-606.6,504.4c-6.2,3-12.4,5.8-18.6,8.7
				c-2.8,1.2-5.5,2.6-8.3,3.8c-9.1,4.1-17.9,7.8-26.4,11.3c-198.7,86.2-401.4,124.9-594.1,128.4c-332.4,10.1-627.7-79.2-859.6-231.3
				c-0.2-0.1-0.5-0.3-0.7-0.4c-2.2-1.3-4.3-2.6-6.5-4c-11.1-6.8-22.3-14-33.9-21.6c-4.4-2.9-8.8-5.7-13.1-8.6
				c-6.1-4.1-11.9-8-17.5-11.8l0,0c0,0,0,0,0,0c-0.2-0.1-0.3-0.2-0.5-0.3c0,0,0,0,0,0l0,0c-7.1-4.8-13.6-9.4-19.7-13.7
				c-0.3-0.2-0.6-0.4-0.9-0.6c-26-18.4-42.3-31-43.6-32c0,0,0,0,0,0c0,0,0,0,0,0c-21.8-16.1-35.2-26.7-57.4-45.8
				c-1.2-1-2.6-2.1-3.8-3.1l0,0l0,0c0,0,0,0,0,0l-0.1-0.1c0,0-0.1-0.1-0.1-0.1c-1.6-1.4-3.1-2.8-4.8-4.2c-1.5-1.4-3.1-2.7-4.7-4.1
				c-8.8-7.5-17.9-15.4-27.5-23.9l-4.3-3.6l-15.8-14.5c-0.4-0.4-0.9-0.8-1.3-1.2l-0.5-0.4c-16.1-14.3-35.8-33.9-51.7-50.3
				c-0.3-0.3-0.5-0.5-0.8-0.8c-1.5-1.5-3.1-3.2-4.6-4.7c-2.9-3.1-5.6-5.8-8.2-8.5c-0.7-0.8-1.4-1.5-2.1-2.2
				c-16.5-17.1-26-27.3-40.3-43.8c-1.3-1.5-2.8-3.1-4-4.5c-0.2-0.3-0.5-0.6-0.8-0.9c-9.8-11.2-19.7-22.8-29.7-34.8
				c-4-4.8-7.7-9.6-11.6-14.3c-4.5-5.5-8.9-11-13.4-16.7c-4.8-5.8-9.7-12.3-14.8-19c-18.9-24.8-36.3-49.1-52.6-73.2
				c-0.4-0.6-0.8-1.2-1.2-1.8c-90.9-134.3-142.6-253.8-168.5-324.9c-2.3-6.2-3.9-10.7-4.8-13.2c-6.7-19-13-37.3-19.3-56.2
				c-1.9-5.6-3.8-11-5.7-16.7c-7.5-21.9-18-58.7-28.3-100.7c-20.1-80.5-33.3-160.5-39.6-238.3c-1.1-12.1-2-23.9-2.6-35
				c-0.7-8.4-1.2-17.6-1.6-27c-10.2-176.6,10.8-325.3,39.4-439.5c2.3-9.3,4.6-18.5,6.9-27.1c0.4-1.3,0.8-2.9,1.2-4.3
				c26.2-104,60.7-196.2,98.1-276.6C246.3,1722.8,247,1721.4,247.7,1720L247.7,1720z"/>
			<g class="st7">
				
					<image style="overflow:visible;enable-background:new    ;" width="3257" height="1684" xlink:href="AF2721AB.png"  transform="matrix(1 0 0 1 61.5 749)">
				</image>
			</g>
			
				<linearGradient id="SVGID_00000077305032851328786720000001358213275491458198_" gradientUnits="userSpaceOnUse" x1="107.6301" y1="-1369.9658" x2="3281.8464" y2="-1369.9658" gradientTransform="matrix(1 0 0 -1 0 1024)">
				<stop  offset="0" style="stop-color:#AC6EFC"/>
				<stop  offset="0.66" style="stop-color:#785EF7"/>
				<stop  offset="0.98" style="stop-color:#7155F5"/>
			</linearGradient>
			<path style="opacity:0.3;fill:url(#SVGID_00000077305032851328786720000001358213275491458198_);enable-background:new    ;" d="
				M857.1,3749.6c-0.4-0.2-0.8-0.5-1.2-0.7c-11.1-6.8-22.3-14-33.9-21.6c-4.4-2.9-8.8-5.7-13.1-8.6c-6.1-4.1-11.9-8-17.5-11.8l0,0
				c0,0,0,0,0,0c-0.2-0.1-0.3-0.2-0.5-0.3c0,0,0,0,0,0l0,0c-7.1-4.8-13.6-9.4-19.7-13.7c-0.3-0.2-0.6-0.4-0.9-0.6
				c-26-18.4-42.3-31-43.6-32c0,0,0,0,0,0c0,0,0,0,0,0c-21.8-16.1-35.2-26.7-57.4-45.8c-1.2-1-2.6-2.1-3.8-3.1l0,0c0,0,0,0,0,0
				l-0.1-0.1c0,0-0.1-0.1-0.1-0.1c-1.6-1.4-3.1-2.8-4.8-4.2c-1.5-1.4-3.1-2.7-4.7-4.1c-8.8-7.5-17.9-15.4-27.5-23.9l-4.3-3.6
				l-15.8-14.5c-0.4-0.4-0.9-0.8-1.3-1.2l-0.5-0.4c-16.1-14.3-35.8-33.9-51.7-50.3c-0.3-0.3-0.5-0.5-0.8-0.8
				c-1.5-1.5-3.1-3.2-4.6-4.7c-2.9-3.1-5.6-5.8-8.2-8.5c-0.7-0.8-1.4-1.5-2.1-2.2c-16.5-17.1-26-27.3-40.3-43.8
				c-1.3-1.5-2.8-3.1-4-4.5c-0.2-0.3-0.5-0.6-0.8-0.9c-9.8-11.2-19.7-22.8-29.7-34.8c-4-4.8-7.7-9.6-11.6-14.3
				c-4.5-5.5-8.9-11-13.4-16.7c-4.8-5.8-9.7-12.3-14.8-19c-18.9-24.8-36.3-49.1-52.6-73.2c-0.4-0.6-0.8-1.2-1.2-1.8
				c-75.7-111.8-124.2-213.3-153.2-285.2c112.8,43.1,226.8,83.8,331.5,143.5c125.1,71.3,238.7,174.7,287.9,310.1
				C871,3546.7,871.3,3649,857.1,3749.6L857.1,3749.6z M2972.9,3183.1c-102.2-65-224.5-90.7-332.1-146.3
				c-203-104.9-336.4-305.5-450.8-503.3c-114.4-197.7-223.6-406.9-401.7-549.9c-108.2-86.9-236.5-144.7-352.7-220.5
				c-116.2-75.8-225.4-177.7-262.2-311.5c-26.6-96.8-17.1-211.7-87.2-283.6c-62-63.5-166.5-69.8-230.4-129.8
				c-15.1,9.3-30.3,19-45.5,29.2c-7.1,4.7-14.3,9.6-21.5,14.6c-2.5,1.7-5,3.3-7.5,5c-6.4,4.5-12.7,8.9-19.1,13.5
				c-26.2,18.7-51.9,38.1-74.3,56.7c-42.9,34.3-80.3,67.9-112.8,99.7c81.3,36.7,150.7,96.4,215.6,158.1
				c409,389.4,698.9,902.3,821.4,1453.6c43.4,195.4,70.8,405.5,197.3,560.6c108.7,133.4,277.7,206.2,447.8,232.4
				c128.7,19.8,259.4,15.6,389.6,5.4c126.1-94.6,237.1-208.4,330.1-339.1c0.5-0.7,1.1-1.5,1.5-2.2c0.4-0.6,0.8-1.2,1.2-1.8
				c5.9-8.2,12.1-16.9,18.4-26.1c3.8-5.5,7.6-11.2,11.4-16.8c1.3-1.9,2.5-3.7,3.8-5.7c8.5-12.7,16.9-25.6,25.4-39
				C3018.5,3216,2996.3,3197.9,2972.9,3183.1L2972.9,3183.1z M3203.6,2673.9c-352.4-89.1-665.2-325.3-847.2-639.9
				c-96.8-167.3-167.1-365.4-331.6-466.8c-100.6-62.1-228.2-81.2-312-164.6c-102-101.6-105.8-262.3-154-398
				c-23.8-67-60-129.4-105.7-183.8c-47.5,7-103.3,17.5-170.9,35.2c-4.5,1.2-9.1,2.3-13.4,3.5c-2.3,0.6-4.8,1.4-7.2,2.1
				c-2.2,0.6-4.3,1.1-6.6,1.8c-5,1.4-9.9,3-14.9,4.4c-5.2,1.5-10.3,3-15.6,4.7c-1.6,0.5-3.2,1-4.9,1.5c11,10.7,21.9,21.3,32.6,31.1
				c127.5,116.2,262.7,232.9,339.6,390.8c21.5,44.2,39.4,91.1,71.2,128.5c43.3,51,107.3,78.6,164.7,113.1
				c93.3,56.2,152.5,161.6,205.1,254.5c69.5,122.8,131.6,249.6,196,375c114,222.2,237.6,443.8,413.7,620.9
				c133.7,134.4,302.3,241.4,485,284.4c8.8-18.5,17.1-36.6,24.6-53.7c0.9-2.1,2-4.3,2.9-6.4c14.6-32.9,29.6-73,42.8-112.8
				c0.3-0.9,0.6-1.9,0.9-2.8c2.5-7.5,4.9-15,7.2-22.4c20.1-61.9,36.2-124.6,48.4-187.8C3237.4,2682.1,3220.4,2678.2,3203.6,2673.9
				L3203.6,2673.9z M3129.9,1963.1c-57.6-182.3-213-319.6-383.9-405.6c-170.8-86-359.3-129-542.5-184
				c-96.9-29.1-195.2-63.1-273.2-127.5c-129.3-106.8-180.4-276.1-215.9-442.7c-31.4-0.6-69.1,0.2-98.2,1.6
				c-8.8,0.4-18.5,1.1-28.5,1.8c146.2,213.4,227.8,488.5,443.8,631.1c100.6,66.4,223,97.9,315.6,175.2c103,86,155.1,216.3,221.5,333
				c156,274,410.9,490.1,706.1,600.4c7.3-74.5,9.1-149.5,5.3-224.7c-53.8-37.1-85.1-99.7-103.4-162.6
				C3157.7,2094.6,3150.1,2027.1,3129.9,1963.1L3129.9,1963.1z M1828.7,809.5c30.7,123.9,94.1,239.7,182.5,331.8
				c38.2,39.8,81.1,75.4,128.8,103.2c84.3,49.1,180.6,72.4,275.5,95.2c141.9,34,283.8,68.1,425.6,102.1
				c34.1,8.2,70.4,16.3,103.8,5.6c6-1.9,11.7-4.5,17-7.5c-1-1.4-2.1-2.7-3.1-4.1c-0.6-0.7-1.1-1.5-1.7-2.2
				c-9.4-12.4-19-24.6-28.7-36.6c-14.9-19.1-27.2-33.6-45.2-53.6c0,0-0.1-0.1-0.1-0.1c-1.7-1.8-3.5-3.9-5.4-6.1
				c-16-18.5-26.2-29.1-48.9-52.6c-0.1-0.1-0.1-0.1-0.2-0.2c0,0,0,0,0,0l0,0c-1.3-1.4-2.9-2.9-4.2-4.4c-0.3-0.3-0.6-0.6-0.8-0.9
				c-13.9-14.3-30.5-30.8-45.3-44.4c-22.1-20.8-43-39.1-64.2-57c-0.3-0.2-0.5-0.4-0.8-0.7c-0.1-0.1-0.2-0.2-0.3-0.3l0,0l0,0
				l-8.9-7.3c-30.4-25.4-60.8-48.8-90.6-70.4c-7.9-0.4-15.9-0.7-23.8-0.9c-112-3.7-226.2,0-333.5-32.2
				c-107.3-32.2-209.4-109.1-235.3-218.1c-0.8-3.5-1.6-6.9-2.2-10.4c-23.4-5-46.3-9.2-69-12.9c-0.3,0-0.7-0.1-1-0.2
				c-37-6-72.9-10.5-108-13.5C1836.6,810.2,1832.7,809.8,1828.7,809.5L1828.7,809.5z M2264,3877.9c-24.2-26-58.3-42.4-90.7-58.3
				c-209-102.6-429.6-235.4-593.4-403.1c-28-28.7-38.4-58.1-54.3-93.7c-22.6-50.6-53.8-97.3-77.2-147.8
				c-49.4-106.1-86.1-217.5-130.8-325.6C1174,2502.4,951,2194.9,730.1,1891.2c-58.5-80.5-120.2-163.8-208.4-209.9
				c-65.5-34.3-146.1-49.2-213-78.9c-16.4,28.7-31.3,56.7-44.7,83.9c-5.5,11-11,22.3-16.4,33.8c-0.6,1.4-1.3,2.8-1.9,4.1
				c-1.8,3.8-3.6,7.8-5.4,11.7c145.9,57.7,267.3,170.4,361.2,297.5c105.6,142.7,181.5,304.7,266,460.8
				c302.1,558,722.1,1051.8,1224.1,1439.8C2149.2,3918.9,2206.7,3900.3,2264,3877.9L2264,3877.9z M1628.7,3984.9
				c-18.2-42.5-44.7-82.6-70.8-120.9c-323.9-474.1-673-930.9-1045.5-1367.9c-114-133.8-230.2-265.7-346.4-397.6
				c-11.1-12.6-22.2-25.2-33.3-37.8c-10,44.2-18.8,93-25,146.2c44.3,42.4,79.1,97.6,105.4,153.4c46.9,99.5,76.5,208.2,139.7,298.1
				c96.7,137.6,257.6,212.4,387.4,319.3c123.1,101.4,218.1,231.9,311.8,360.9c88.6,122,177.2,244,265.8,366
				c26.5,36.6,53.5,74,66.9,117.1c14,45,12.2,92.1,8.5,139.5C1469,3974.7,1547.6,3982.8,1628.7,3984.9L1628.7,3984.9z"/>
		</g>
	</g>
	<g id="background-dust03">
		<path class="st9" d="M365.7,305.1c1.7,1.8,1.6,4.6-0.1,6.3c-1.8,1.7-4.6,1.6-6.3-0.1s-1.6-4.6,0.1-6.3
			C361.2,303.3,364,303.3,365.7,305.1z"/>
		<path class="st9" d="M406.4,309c0.7,0.7,0.7,1.8-0.1,2.5c-0.7,0.7-1.8,0.7-2.5-0.1c-0.7-0.7-0.7-1.8,0.1-2.5
			C404.6,308.3,405.7,308.3,406.4,309z"/>
		<path class="st9" d="M283.5,394.4c1.1,1.1,1.1,3-0.1,4.1c-1.1,1.1-3,1.1-4.1-0.1c-1.1-1.1-1.1-3,0.1-4.1
			C280.6,393.2,282.4,393.2,283.5,394.4z"/>
		<path class="st9" d="M626.4,893.6c1.4,1.5,1.4,3.8-0.1,5.2c-1.5,1.4-3.8,1.4-5.2-0.1c-1.4-1.5-1.4-3.8,0.1-5.2
			C622.6,892.1,625,892.1,626.4,893.6z"/>
		<circle class="st9" cx="759.4" cy="369" r="1.5"/>
		<path class="st9" d="M818.5,327c0.9,1,0.9,2.5-0.1,3.4s-2.5,0.9-3.4-0.1c-0.9-1-0.9-2.5,0.1-3.4C816.1,326,817.6,326,818.5,327z"
			/>
		<path class="st9" d="M716.6,43.4c0.9,1,0.9,2.5-0.1,3.4c-1,0.9-2.5,0.9-3.4-0.1s-0.9-2.5,0.1-3.4S715.7,42.4,716.6,43.4z"/>
		<path class="st9" d="M687.5,178.3c1.5,1.5,1.4,3.9-0.1,5.4c-1.5,1.5-3.9,1.4-5.4-0.1s-1.4-3.9,0.1-5.4S686,176.8,687.5,178.3z"/>
		<path class="st9" d="M501.3,930.2c1.3,1.4,1.3,3.6-0.1,4.9c-1.4,1.3-3.6,1.3-4.9-0.1c-1.3-1.4-1.3-3.6,0.1-4.9
			S500,928.8,501.3,930.2z"/>
		<ellipse transform="matrix(0.7219 -0.692 0.692 0.7219 -79.8085 585.0748)" class="st9" cx="688" cy="391.8" rx="2.1" ry="2.1"/>
		<circle class="st9" cx="543.1" cy="599.7" r="3.9"/>
		<path class="st9" d="M282,674.7c1.7,1.8,1.7,4.7-0.1,6.4s-4.7,1.7-6.4-0.1s-1.7-4.7,0.1-6.4C277.4,672.8,280.3,672.9,282,674.7z"
			/>
		<circle class="st9" cx="168.7" cy="545.6" r="4.2"/>
		<circle class="st9" cx="246.9" cy="524.9" r="2.5"/>
		<path class="st9" d="M145.5,521.4c1.4,1.5,1.4,3.9-0.1,5.3c-1.5,1.4-3.9,1.4-5.3-0.1c-1.4-1.5-1.4-3.9,0.1-5.3
			C141.7,519.9,144.1,519.9,145.5,521.4z"/>
		<path class="st9" d="M537.2,114.3c1.7,1.8,1.6,4.6-0.1,6.3c-1.8,1.7-4.6,1.6-6.3-0.1c-1.7-1.8-1.6-4.6,0.1-6.3
			C532.7,112.5,535.5,112.5,537.2,114.3z"/>
		<path class="st9" d="M767.4,113.8c0.7,0.7,0.7,1.8-0.1,2.5s-1.8,0.7-2.5-0.1s-0.7-1.8,0.1-2.5
			C765.6,113.1,766.8,113.1,767.4,113.8z"/>
		<path class="st9" d="M791.8,17.5c1.1,1.1,1.1,3-0.1,4.1c-1.1,1.1-3,1.1-4.1-0.1c-1.1-1.1-1.1-3,0.1-4.1
			C788.9,16.3,790.7,16.3,791.8,17.5z"/>
		<circle class="st9" cx="421" cy="423" r="4.6"/>
		<path class="st9" d="M609.7,328c1,1,0.9,2.6-0.1,3.6c-1,1-2.6,0.9-3.6-0.1c-1-1-0.9-2.6,0.1-3.6S608.7,327,609.7,328z"/>
		<path class="st9" d="M312.6,470.4c1.4,1.5,1.4,3.9-0.1,5.3c-1.5,1.4-3.9,1.4-5.3-0.1c-1.4-1.5-1.4-3.9,0.1-5.3
			S311.2,468.9,312.6,470.4z"/>
	</g>
	<g id="background-dust01">
		<path class="st10" d="M1110.8,571.4c3.8-3.8,10.1-3.8,13.9,0c3.8,3.8,3.8,10.1,0,13.9c-3.8,3.8-10.1,3.8-13.9,0
			C1106.9,581.5,1106.9,575.3,1110.8,571.4z"/>
		<path class="st10" d="M1165.8,934.5c2.5-2.5,6.7-2.5,9.2,0c2.5,2.5,2.5,6.7,0,9.2s-6.7,2.5-9.2,0
			C1163.3,941.2,1163.3,937,1165.8,934.5z"/>
		<path class="st11" d="M443.4,938.9c4.2-4.2,10.9-4.2,15.1,0c4.2,4.2,4.2,10.9,0,15.1c-4.2,4.2-10.9,4.2-15.1,0
			C439.2,949.9,439.2,943.1,443.4,938.9z"/>
		
			<rect x="1063.3" y="550" transform="matrix(0.7071 -0.7071 0.7071 0.7071 -79.6324 918.1843)" class="st12" width="10.4" height="10.4"/>
		
			<rect x="475" y="874.1" transform="matrix(0.7071 -0.7071 0.7071 0.7071 -479.9703 594.3578)" class="st10" width="4.9" height="4.9"/>
		
			<rect x="710.2" y="877.7" transform="matrix(0.7071 -0.7071 0.7071 0.7071 -415.7584 766.7805)" class="st13" width="15.1" height="15.1"/>
		
			<rect x="415.8" y="814.8" transform="matrix(0.7071 -0.7071 0.7071 0.7071 -456.8218 538.4777)" class="st9" width="11.7" height="11.7"/>
		
			<rect x="460.9" y="490.1" transform="matrix(0.7071 -0.7071 0.7071 0.7071 -213.9448 475.2967)" class="st11" width="11.7" height="11.7"/>
		
			<rect x="519.9" y="844" transform="matrix(0.7071 -0.7071 0.7071 0.7071 -446.9644 620.6693)" class="st11" width="11.7" height="11.7"/>
		
			<rect x="1162.4" y="742" transform="matrix(0.7071 -0.7071 0.7071 0.7071 -186.5964 1045.1033)" class="st11" width="11.7" height="11.7"/>
		<path class="st14" d="M1278.8,519.7c2.6-2.6,6.8-2.6,9.4,0s2.6,6.8,0,9.4s-6.8,2.6-9.4,0S1276.2,522.3,1278.8,519.7z"/>
		<path class="st10" d="M476.9,319.2c-5.2-1.5-8.2-7-6.7-12.2c1.5-5.2,7-8.2,12.2-6.7c5.2,1.5,8.2,7,6.7,12.2
			C487.5,317.8,482.1,320.8,476.9,319.2z"/>
		
			<rect x="477.7" y="358.9" transform="matrix(0.2821 -0.9594 0.9594 0.2821 -2.6432 724.5799)" class="st12" width="10.4" height="10.4"/>
		<path class="st14" d="M351,196.5c-3.5-1-5.5-4.7-4.5-8.2c1-3.5,4.7-5.5,8.2-4.5s5.5,4.7,4.5,8.2
			C358.1,195.5,354.5,197.5,351,196.5z"/>
		<path class="st14" d="M352,749.9c1.4-1.4,3.7-1.4,5.1,0c1.4,1.4,1.4,3.7,0,5.1c-1.4,1.4-3.7,1.4-5.1,0
			C350.6,753.6,350.6,751.4,352,749.9z"/>
		<path class="st14" d="M606,516c1.1-1.1,2.8-1.1,3.8,0c1.1,1.1,1.1,2.8,0,3.8c-1.1,1.1-2.8,1.1-3.8,0
			C604.9,518.8,604.9,517.1,606,516z"/>
		<circle class="st10" cx="281.7" cy="747.1" r="4.9"/>
		<path class="st11" d="M1242.5,277.2c4.2-4.2,10.9-4.2,15.1,0c4.2,4.2,4.2,10.9,0,15.1c-4.2,4.2-10.9,4.2-15.1,0
			C1238.3,288.1,1238.3,281.3,1242.5,277.2z"/>
		
			<rect x="1274.1" y="212.3" transform="matrix(0.7071 -0.7071 0.7071 0.7071 222.0298 965.5912)" class="st10" width="4.9" height="4.9"/>
		
			<rect x="1214.9" y="153.1" transform="matrix(0.7071 -0.7071 0.7071 0.7071 245.1783 909.7111)" class="st9" width="11.7" height="11.7"/>
		
			<rect x="1319" y="182.3" transform="matrix(0.7071 -0.7071 0.7071 0.7071 255.0357 991.9027)" class="st11" width="11.7" height="11.7"/>
		<path class="st14" d="M1151.1,88.2c1.4-1.4,3.7-1.4,5.1,0c1.4,1.4,1.4,3.7,0,5.1c-1.4,1.4-3.7,1.4-5.1,0
			C1149.7,91.9,1149.7,89.6,1151.1,88.2z"/>
		<circle class="st10" cx="1080.8" cy="85.3" r="4.9"/>
		
			<rect x="1341.1" y="796.8" transform="matrix(0.2821 -0.9594 0.9594 0.2821 197.0692 1867.3688)" class="st12" width="10.4" height="10.4"/>
	</g>
	<g id="background-dust02">
		<path class="st9" d="M1632.1,191.1c-1.6,1.9-4.4,2.1-6.3,0.4c-1.9-1.6-2.1-4.4-0.4-6.3s4.4-2.1,6.3-0.4
			C1633.5,186.4,1633.7,189.2,1632.1,191.1z"/>
		<path class="st9" d="M1236.6,90c-0.6,0.7-1.8,0.8-2.5,0.2c-0.7-0.6-0.8-1.8-0.2-2.5c0.6-0.7,1.8-0.8,2.5-0.2
			C1237.1,88.1,1237.2,89.2,1236.6,90z"/>
		<path class="st9" d="M1306.7,114c-1,1.2-2.9,1.3-4.1,0.3c-1.2-1-1.3-2.9-0.3-4.1s2.9-1.3,4.1-0.3
			C1307.6,111,1307.7,112.8,1306.7,114z"/>
		<path class="st9" d="M853.1,362.9c-1.3,1.5-3.7,1.7-5.2,0.4c-1.5-1.3-1.7-3.7-0.4-5.2s3.7-1.7,5.2-0.4
			C854.3,359,854.4,361.3,853.1,362.9z"/>
		<circle class="st9" cx="1387.7" cy="447" r="1.5"/>
		<path class="st9" d="M1435,502c-0.9,1-2.4,1.1-3.4,0.2s-1.1-2.4-0.2-3.4s2.4-1.1,3.4-0.2S1435.8,501,1435,502z"/>
		<path class="st9" d="M1841.3,509.3c-0.9,1-2.4,1.1-3.4,0.2c-1-0.9-1.1-2.4-0.2-3.4c0.9-1,2.4-1.1,3.4-0.2
			C1842,506.8,1842.2,508.3,1841.3,509.3z"/>
		<path class="st9" d="M1598.7,241.9c-1.4,1.6-3.8,1.8-5.4,0.4c-1.6-1.4-1.8-3.8-0.4-5.4c1.4-1.6,3.8-1.8,5.4-0.4
			C1599.9,237.9,1600,240.3,1598.7,241.9z"/>
		<path class="st9" d="M805.1,241.7c-1.3,1.4-3.5,1.6-4.9,0.3s-1.6-3.5-0.3-4.9c1.3-1.4,3.5-1.6,4.9-0.3
			C806.2,238.1,806.4,240.3,805.1,241.7z"/>
		
			<ellipse transform="matrix(0.655 -0.7556 0.7556 0.655 183.0058 1156.7747)" class="st9" cx="1358.4" cy="378" rx="2.1" ry="2.1"/>
		<path class="st9" d="M1537.3,472c-1.1,1.3-3.1,1.5-4.4,0.3c-1.3-1.1-1.5-3.1-0.3-4.4s3.1-1.5,4.4-0.3S1538.4,470.7,1537.3,472z"/>
		<path class="st9" d="M1270.3,660.6c-1.2,1.4-3.3,1.5-4.7,0.3c-1.4-1.2-1.5-3.3-0.3-4.7c1.2-1.4,3.3-1.5,4.7-0.3
			S1271.5,659.2,1270.3,660.6z"/>
		<path class="st9" d="M1575.1,770.3c-1.2,1.4-3.3,1.5-4.7,0.3c-1.4-1.2-1.5-3.3-0.3-4.7c1.2-1.4,3.3-1.5,4.7-0.3
			S1576.3,768.9,1575.1,770.3z"/>
		<path class="st9" d="M1515.6,859.4c-0.5,0.6-1.3,0.6-1.9,0.1s-0.6-1.3-0.1-1.9c0.5-0.6,1.3-0.6,1.9-0.1
			C1516,858,1516.1,858.9,1515.6,859.4z"/>
		
			<ellipse transform="matrix(0.655 -0.7556 0.7556 0.655 -69.1231 1473.7457)" class="st9" cx="1579.5" cy="812.6" rx="2.2" ry="2.2"/>
		<path class="st9" d="M1357.9,704.2c-1.1,1.3-3.1,1.5-4.4,0.3c-1.3-1.1-1.5-3.1-0.3-4.4c1.1-1.3,3.1-1.5,4.4-0.3
			C1358.9,700.9,1359,702.9,1357.9,704.2z"/>
		<circle class="st9" cx="1433.6" cy="756" r="4.3"/>
		<path class="st9" d="M1489.5,797.3c-0.7,0.8-1.9,0.9-2.7,0.2s-0.9-1.9-0.2-2.7c0.7-0.8,1.9-0.9,2.7-0.2S1490.2,796.5,1489.5,797.3
			z"/>
		<path class="st9" d="M1428,729.3c-1,1.1-2.6,1.2-3.7,0.3c-1.1-1-1.2-2.6-0.3-3.7c1-1.1,2.6-1.2,3.7-0.3
			C1428.9,726.5,1429,728.2,1428,729.3z"/>
		
			<ellipse transform="matrix(0.655 -0.7556 0.7556 0.655 -109.7715 1461.795)" class="st9" cx="1546" cy="851.1" rx="2.8" ry="2.8"/>
		<circle class="st9" cx="1304.5" cy="179.7" r="3.9"/>
		<path class="st9" d="M860.9,211.6c-1.7,1.9-4.5,2.1-6.4,0.5c-1.9-1.6-2.1-4.5-0.5-6.4c1.6-1.9,4.5-2.1,6.4-0.5
			C862.4,206.8,862.6,209.7,860.9,211.6z"/>
		<circle class="st9" cx="979" cy="86.8" r="4.2"/>
		<circle class="st9" cx="1006.8" cy="162.8" r="2.5"/>
		<path class="st9" d="M1001,61.5c-1.4,1.6-3.7,1.7-5.3,0.4c-1.6-1.4-1.7-3.7-0.4-5.3c1.4-1.6,3.7-1.7,5.3-0.4
			C1002.2,57.6,1002.4,59.9,1001,61.5z"/>
		<path class="st9" d="M1781.8,221.2c-1.6,1.9-4.4,2.1-6.3,0.4c-1.9-1.6-2.1-4.4-0.4-6.3c1.6-1.9,4.4-2.1,6.3-0.4
			C1783.2,216.6,1783.4,219.4,1781.8,221.2z"/>
		<path class="st9" d="M1642.5,431.5c-0.6,0.7-1.8,0.8-2.5,0.2c-0.7-0.6-0.8-1.8-0.2-2.5c0.6-0.7,1.8-0.8,2.5-0.2
			C1643.1,429.6,1643.2,430.7,1642.5,431.5z"/>
		<path class="st9" d="M1740.7,446.9c-1,1.2-2.9,1.3-4.1,0.3c-1.2-1-1.3-2.9-0.3-4.1s2.9-1.3,4.1-0.3S1741.8,445.7,1740.7,446.9z"/>
		<circle class="st9" cx="1290.8" cy="41.9" r="4.6"/>
		<path class="st9" d="M1148.8,504.5c-1.5,1.7-4.1,1.9-5.9,0.4c-1.7-1.5-1.9-4.1-0.4-5.9c1.5-1.7,4.1-1.9,5.9-0.4
			C1150.2,500.1,1150.3,502.8,1148.8,504.5z"/>
		<path class="st9" d="M1442.4,178.2c-0.9,1.1-2.5,1.2-3.6,0.3s-1.2-2.5-0.3-3.6c0.9-1.1,2.5-1.2,3.6-0.3
			C1443.2,175.5,1443.3,177.1,1442.4,178.2z"/>
		<path class="st9" d="M1233.7,150.1c-1.4,1.6-3.7,1.7-5.3,0.4s-1.7-3.7-0.4-5.3s3.7-1.7,5.3-0.4S1235,148.5,1233.7,150.1z"/>
	</g>
</g>
<g id="background_x5F_topPlanet" style="clip-path:url(#SVGID_00000152228125036666195980000015387077965750323871_);">
	<g id="pin-planet">
		<defs>
			<path id="SVGID_00000156567915430247652960000006835037114665098420_" d="M55.7,57.5c-0.1-1.6-0.2-3.2-0.2-4.7
				C55,38.6,56,22,60,3.6l0,0c1.8-9,5-20.8,10.8-34.6c1.4-3.4,3.1-7.1,4.8-10.7c0.4-0.9,0.9-1.8,1.3-2.6c0.2-0.3,0.3-0.7,0.5-1
				c0.5-1,1-2,1.5-2.9c2.7-5,5.4-9.7,8.3-14.1c0.9-1.4,1.8-2.9,2.8-4.3c0.1-0.2,0.2-0.3,0.4-0.5c0.7-1,1.4-2,2.1-2.9
				c5.7-8,11.5-14.9,17.3-21c1.1-1.2,2.2-2.3,3.3-3.4c0.5-0.5,1-1,1.4-1.4c0.5-0.5,0.9-0.9,1.4-1.4c0.2-0.2,0.4-0.4,0.6-0.6
				c0.2-0.2,0.5-0.4,0.7-0.7c0.4-0.4,0.8-0.8,1.3-1.2c7.8-7.3,14.4-12.3,19.9-16.3c0.1-0.1,0.3-0.2,0.5-0.3
				c-0.1,0.1-0.1,0.1-0.2,0.2c0.6-0.4,1.1-0.8,1.7-1.2c2.3-1.7,5-3.4,7.8-5.1c1.5-1,3-1.9,4.3-2.7c3.6-2.2,8.5-4.9,12.3-6.8
				c0,0,0.1,0,0.1-0.1c1.8-0.9,3.6-1.8,5.4-2.6c0,0,0,0,0.1,0c0.1,0,0.1-0.1,0.2-0.1c1.1-0.5,2.1-1,3.1-1.4c1.4-0.6,2.7-1.2,4-1.7
				c4.1-1.8,8.3-3.4,12.8-4.9c0,0,0.1,0,0.1,0c3.5-1.2,7.1-2.4,10.9-3.4c18.9-5.4,38.4-7.8,58.2-7.3c10.2,0.1,22.1,1.3,34.9,3.9
				l1.4,0.3l0,0l0,0l0,0c0,0,0,0,0,0c0,0,0.1,0,0.1,0c3.4,0.7,6.8,1.5,10.5,2.5c2.5,0.6,5.3,1.4,7.7,2.2c0,0,0.1,0,0.1,0.1
				c0.2,0.1,0.5,0.2,0.7,0.2l0,0l0,0c0,0,0,0,0,0c3.9,1.2,5.7,1.8,8.5,2.9c0.3,0.1,0.7,0.2,1,0.4c0,0,0,0,0,0c3.2,1.1,5.4,2,8.2,3.2
				c1.8,0.8,3.6,1.5,5.4,2.3c0.1,0.1,0.2,0.1,0.3,0.1c2.3,1,4.6,2.1,6.8,3.3c0.1,0,0.2,0.1,0.2,0.1c2,1,3.9,2,5.9,3.1
				c1.4,0.8,2.7,1.5,4,2.3c0.5,0.3,1,0.6,1.5,0.9c13.4,7.9,23.1,15.7,29,20.9c0.6,0.6,1.1,0.9,1.3,1.2c0,0,0,0,0,0
				c2.7,2.4,5.2,4.7,7.1,6.6c0.6,0.6,1.3,1.3,2,1.9c0,0.1,0.1,0.1,0.2,0.2l0.2,0.2c3.2,3.2,7.1,7.3,11.8,12.9
				c22.3,26.3,36.9,57.2,43,90.8c0.2,1,0.4,1.9,0.5,2.9c0,0.1,0,0.2,0.1,0.4c0.9,5.2,1.6,10.5,2,15c0,0.3,0,0.6,0.1,0.9
				c0.3,3.6,0.5,7.6,0.7,11.6c0,0.6,0.1,1.3,0.1,1.9l0,2c0,1.4,0,2.8,0,4.2c0,3.3-0.1,6.5-0.2,9.4c-0.1,2.6-0.4,5.1-0.6,7.6
				c0,0.3,0,0.6-0.1,0.8c-0.1,0.8-0.2,1.7-0.3,2.5c-0.1,1.4-0.3,2.7-0.5,4c0,0.1,0,0.2,0,0.3c0,0.1,0,0.2,0,0.3
				c-4.2,33.5-16.8,64.8-37,91.9c-0.5,0.7-1,1.4-1.5,2.1c-0.2,0.3-0.5,0.6-0.7,0.9c-0.8,1-1.5,1.9-2.2,2.8
				c-16.8,21.4-37,37.7-58,49.6c-36.2,20.9-74.1,28.6-108.8,25.6c0,0-0.1,0-0.1,0c-0.3,0-0.6,0-0.9-0.1c-1.6-0.1-3.3-0.2-5-0.4
				c-0.6-0.1-1.3-0.1-2-0.2c-0.9-0.1-1.8-0.2-2.6-0.3l0,0l0,0c0,0-0.1,0-0.1,0l0,0l0,0c-1.1-0.1-2.1-0.2-3-0.3c0,0-0.1,0-0.1,0
				c-4-0.5-6.5-0.9-6.7-0.9l0,0l0,0c-3.4-0.5-5.5-0.9-9.1-1.6c-0.2,0-0.4-0.1-0.6-0.1l0,0l0,0h0h0c-0.3-0.1-0.5-0.1-0.8-0.2
				c-0.2-0.1-0.5-0.1-0.8-0.2c-1.4-0.3-2.9-0.6-4.5-1l-0.7-0.1l-2.6-0.7c-0.1,0-0.1,0-0.2-0.1l-0.1,0c-2.6-0.6-6-1.6-8.7-2.5
				c-0.1,0-0.1,0-0.1,0c-0.3-0.1-0.5-0.2-0.8-0.2c-0.5-0.2-1-0.3-1.4-0.4c-0.1,0-0.2-0.1-0.4-0.1c-2.9-0.9-4.5-1.5-7.1-2.4
				c-0.2-0.1-0.5-0.2-0.7-0.2c0,0-0.1,0-0.1-0.1c-1.8-0.6-3.5-1.3-5.4-2.1c-0.7-0.3-1.4-0.6-2.1-0.9c-0.8-0.4-1.6-0.7-2.5-1.1
				c-0.9-0.4-1.8-0.8-2.8-1.2c-3.6-1.6-6.9-3.3-10.2-5c-0.1,0-0.2-0.1-0.2-0.1c-18.1-9.4-30.9-19.6-38-25.9
				c-0.6-0.6-1.1-0.9-1.3-1.2c-1.9-1.7-3.7-3.4-5.5-5.1c-0.5-0.5-1.1-1-1.6-1.5c-2.1-2-5.5-5.4-9.1-9.4c-7-7.7-13.2-15.8-18.6-24
				c-0.8-1.3-1.6-2.5-2.4-3.7c-0.6-0.9-1.2-1.9-1.8-2.9c-11.7-18.9-18.2-36.6-21.8-50.9c-0.3-1.2-0.6-2.3-0.8-3.4
				c0-0.2-0.1-0.4-0.1-0.6c-3.3-13.1-5-25.3-5.6-36.4C55.8,57.9,55.8,57.7,55.7,57.5L55.7,57.5z"/>
		</defs>
		<clipPath id="SVGID_00000032633213686699995950000017656054621914871691_">
			<use xlink:href="#SVGID_00000156567915430247652960000006835037114665098420_"  style="overflow:visible;"/>
		</clipPath>
		<g style="clip-path:url(#SVGID_00000032633213686699995950000017656054621914871691_);">
			<g>
				
					<radialGradient id="SVGID_00000114069908888532261460000001120559293685233322_" cx="11781.1416" cy="-7683.1104" r="502.46" gradientTransform="matrix(-0.3372 -0.3417 0.3417 -0.3372 6770.8521 1498.1915)" gradientUnits="userSpaceOnUse">
					<stop  offset="0" style="stop-color:#FA87FD"/>
					<stop  offset="0.73" style="stop-color:#FBAFFD"/>
					<stop  offset="0.99" style="stop-color:#FCE1FD"/>
				</radialGradient>
				<path style="fill:url(#SVGID_00000114069908888532261460000001120559293685233322_);" d="M55.7,57.5c-0.1-1.6-0.2-3.2-0.2-4.7
					C55,38.6,56,22,60,3.6l0,0c1.8-9,5-20.8,10.8-34.6c1.4-3.4,3.1-7.1,4.8-10.7c0.4-0.9,0.9-1.8,1.3-2.6c0.2-0.3,0.3-0.7,0.5-1
					c0.5-1,1-2,1.5-2.9c2.7-5,5.4-9.7,8.3-14.1c0.9-1.4,1.8-2.9,2.8-4.3c0.1-0.2,0.2-0.3,0.4-0.5c0.7-1,1.4-2,2.1-2.9
					c5.7-8,11.5-14.9,17.3-21c1.1-1.2,2.2-2.3,3.3-3.4c0.5-0.5,1-1,1.4-1.4c0.5-0.5,0.9-0.9,1.4-1.4c0.2-0.2,0.4-0.4,0.6-0.6
					c0.2-0.2,0.5-0.4,0.7-0.7c0.4-0.4,0.8-0.8,1.3-1.2c7.8-7.3,14.4-12.3,19.9-16.3c0.1-0.1,0.3-0.2,0.5-0.3
					c-0.1,0.1-0.1,0.1-0.2,0.2c0.6-0.4,1.1-0.8,1.7-1.2c2.3-1.7,5-3.4,7.8-5.1c1.5-1,3-1.9,4.3-2.7c3.6-2.2,8.5-4.9,12.3-6.8
					c0,0,0.1,0,0.1-0.1c1.8-0.9,3.6-1.8,5.4-2.6c0,0,0,0,0.1,0c0.1,0,0.1-0.1,0.2-0.1c1.1-0.5,2.1-1,3.1-1.4c1.4-0.6,2.7-1.2,4-1.7
					c4.1-1.8,8.3-3.4,12.8-4.9c0,0,0.1,0,0.1,0c3.5-1.2,7.1-2.4,10.9-3.4c18.9-5.4,38.4-7.8,58.2-7.3c10.2,0.1,22.1,1.3,34.9,3.9
					l1.4,0.3l0,0l0,0l0,0c0,0,0,0,0,0c0,0,0.1,0,0.1,0c3.4,0.7,6.8,1.5,10.5,2.5c2.5,0.6,5.3,1.4,7.7,2.2c0,0,0.1,0,0.1,0.1
					c0.2,0.1,0.5,0.2,0.7,0.2l0,0l0,0c0,0,0,0,0,0c3.9,1.2,5.7,1.8,8.5,2.9c0.3,0.1,0.7,0.2,1,0.4c0,0,0,0,0,0
					c3.2,1.1,5.4,2,8.2,3.2c1.8,0.8,3.6,1.5,5.4,2.3c0.1,0.1,0.2,0.1,0.3,0.1c2.3,1,4.6,2.1,6.8,3.3c0.1,0,0.2,0.1,0.2,0.1
					c2,1,3.9,2,5.9,3.1c1.4,0.8,2.7,1.5,4,2.3c0.5,0.3,1,0.6,1.5,0.9c13.4,7.9,23.1,15.7,29,20.9c0.6,0.6,1.1,0.9,1.3,1.2
					c0,0,0,0,0,0c2.7,2.4,5.2,4.7,7.1,6.6c0.6,0.6,1.3,1.3,2,1.9c0,0.1,0.1,0.1,0.2,0.2l0.2,0.2c3.2,3.2,7.1,7.3,11.8,12.9
					c22.3,26.3,36.9,57.2,43,90.8c0.2,1,0.4,1.9,0.5,2.9c0,0.1,0,0.2,0.1,0.4c0.9,5.2,1.6,10.5,2,15c0,0.3,0,0.6,0.1,0.9
					c0.3,3.6,0.5,7.6,0.7,11.6c0,0.6,0.1,1.3,0.1,1.9l0,2c0,1.4,0,2.8,0,4.2c0,3.3-0.1,6.5-0.2,9.4c-0.1,2.6-0.4,5.1-0.6,7.6
					c0,0.3,0,0.6-0.1,0.8c-0.1,0.8-0.2,1.7-0.3,2.5c-0.1,1.4-0.3,2.7-0.5,4c0,0.1,0,0.2,0,0.3c0,0.1,0,0.2,0,0.3
					c-4.2,33.5-16.8,64.8-37,91.9c-0.5,0.7-1,1.4-1.5,2.1c-0.2,0.3-0.5,0.6-0.7,0.9c-0.8,1-1.5,1.9-2.2,2.8
					c-16.8,21.4-37,37.7-58,49.6c-36.2,20.9-74.1,28.6-108.8,25.6c0,0-0.1,0-0.1,0c-0.3,0-0.6,0-0.9-0.1c-1.6-0.1-3.3-0.2-5-0.4
					c-0.6-0.1-1.3-0.1-2-0.2c-0.9-0.1-1.8-0.2-2.6-0.3l0,0l0,0c0,0-0.1,0-0.1,0l0,0l0,0c-1.1-0.1-2.1-0.2-3-0.3c0,0-0.1,0-0.1,0
					c-4-0.5-6.5-0.9-6.7-0.9l0,0l0,0c-3.4-0.5-5.5-0.9-9.1-1.6c-0.2,0-0.4-0.1-0.6-0.1l0,0l0,0h0h0c-0.3-0.1-0.5-0.1-0.8-0.2
					c-0.2-0.1-0.5-0.1-0.8-0.2c-1.4-0.3-2.9-0.6-4.5-1l-0.7-0.1l-2.6-0.7c-0.1,0-0.1,0-0.2-0.1l-0.1,0c-2.6-0.6-6-1.6-8.7-2.5
					c-0.1,0-0.1,0-0.1,0c-0.3-0.1-0.5-0.2-0.8-0.2c-0.5-0.2-1-0.3-1.4-0.4c-0.1,0-0.2-0.1-0.4-0.1c-2.9-0.9-4.5-1.5-7.1-2.4
					c-0.2-0.1-0.5-0.2-0.7-0.2c0,0-0.1,0-0.1-0.1c-1.8-0.6-3.5-1.3-5.4-2.1c-0.7-0.3-1.4-0.6-2.1-0.9c-0.8-0.4-1.6-0.7-2.5-1.1
					c-0.9-0.4-1.8-0.8-2.8-1.2c-3.6-1.6-6.9-3.3-10.2-5c-0.1,0-0.2-0.1-0.2-0.1c-18.1-9.4-30.9-19.6-38-25.9
					c-0.6-0.6-1.1-0.9-1.3-1.2c-1.9-1.7-3.7-3.4-5.5-5.1c-0.5-0.5-1.1-1-1.6-1.5c-2.1-2-5.5-5.4-9.1-9.4c-7-7.7-13.2-15.8-18.6-24
					c-0.8-1.3-1.6-2.5-2.4-3.7c-0.6-0.9-1.2-1.9-1.8-2.9c-11.7-18.9-18.2-36.6-21.8-50.9c-0.3-1.2-0.6-2.3-0.8-3.4
					c0-0.2-0.1-0.4-0.1-0.6c-3.3-13.1-5-25.3-5.6-36.4C55.8,57.9,55.8,57.7,55.7,57.5L55.7,57.5z"/>
				<g class="st17">
					
						<linearGradient id="SVGID_00000085213513101164708440000014089901503827686045_" gradientUnits="userSpaceOnUse" x1="180.329" y1="1202.733" x2="336.559" y2="740.423" gradientTransform="matrix(1 0 0 -1 0 1024)">
						<stop  offset="0" style="stop-color:#FFFFFF"/>
						<stop  offset="1" style="stop-color:#FFFFFF;stop-opacity:0"/>
					</linearGradient>
					<path style="fill:url(#SVGID_00000085213513101164708440000014089901503827686045_);" d="M295.8,252.2c-6.5,1.3-13,2.3-19.4,3
						c-25.6-27.7-58.8-47.9-93.2-63.9c-35-16.2-71.8-28.4-109.4-36.4c-0.8-1.3-1.5-2.5-2.2-3.7c-0.4-0.8-0.8-1.3-0.9-1.6
						c-1.3-2.4-2.6-4.6-3.8-7c-0.4-0.7-0.8-1.4-1.1-2.1c-1.5-2.7-3.7-7.3-6-12.7c-3.3-7.5-6.1-15.1-8.4-22.6
						c107.2,9.4,210.9,57.7,286.7,134.2C324,245.4,309.8,249.5,295.8,252.2L295.8,252.2z M204,222.2c-31.4-31.4-75.2-50-119.6-51.5
						c4.6,6.1,10.1,12.7,16.7,19.6c0.1,0.1,0.1,0.1,0.2,0.2c2.7,2.8,5.6,5.6,8.6,8.5c0.8,0.8,1.6,1.5,2.4,2.2
						c0.7,0.6,1.4,1.3,2.2,1.9c0.6,0.6,1.2,1.1,1.9,1.6c1.6,1.4,3.2,2.7,4.7,3.9c0,0,0.1,0.1,0.1,0.1c0.2,0.2,0.4,0.3,0.6,0.5
						c2.3,1.9,3.8,3,6.3,4.9c0.1,0.1,0.2,0.2,0.3,0.2c0.4,0.3,0.8,0.6,1.3,0.9c0.2,0.2,0.5,0.3,0.7,0.5c0,0,0.1,0.1,0.1,0.1
						c2.5,1.8,5.5,3.9,8,5.5l0.1,0.1c0.1,0,0.1,0.1,0.2,0.1l2.4,1.6l0.6,0.4c1.5,0.9,2.8,1.7,4.2,2.5c0.2,0.1,0.5,0.3,0.7,0.4
						c0.2,0.1,0.5,0.3,0.7,0.4c0,0,0,0,0,0h0l0,0l0,0c0.2,0.1,0.4,0.2,0.6,0.3c3.4,2,5.4,3.1,8.6,4.8l0,0l0,0
						c0.2,0.1,2.6,1.4,6.5,3.2c0,0,0.1,0,0.1,0.1c0.9,0.4,1.9,0.9,2.9,1.4l0,0l0,0c0,0,0.1,0,0.1,0l0,0l0,0c0.8,0.4,1.7,0.8,2.6,1.2
						c0.6,0.3,1.3,0.6,1.9,0.8c1.7,0.7,3.4,1.4,5,2.1c0.3,0.1,0.6,0.2,0.9,0.4c0,0,0.1,0,0.1,0c15.7,6.8,32.9,11.6,51.1,13.8
						C222.2,242.8,213.6,231.8,204,222.2L204,222.2z M262.1,118.8C195,79.5,119.2,55.4,41.8,48.2c0.2,10.4,1.4,22,3.9,34.6
						c21.6-0.8,43.3,0.2,64.9,3.5C205.4,101,288.2,159.2,349,234.5c7.6-3.7,15-7.9,22.4-12.7c1-0.6,2.1-1.4,3.2-2.1
						c0.3-0.2,0.7-0.5,1-0.7c0.8-0.5,1.5-1,2.3-1.6c1.3-0.9,2.5-1.8,3.8-2.7C346.7,177.2,306.3,144.7,262.1,118.8L262.1,118.8z
						 M446.6,111.9c-14.5-5.2-30.5-3.2-45.9-3.6c-15.4-0.4-32.5-4.4-40.9-17.4c-10-15.4-3.8-37.1-13.4-52.7
						c-6.8-11.1-20.2-16.5-33.1-17.9c-12.9-1.5-26,0.2-39-0.4c-17.9-0.8-35.6-6-51.1-15c-14.2-8.2-26.8-19.9-34.1-34.6
						c-3.7-7.5-6.4-16.1-13.4-20.7c-13.6-9-33.1,3.7-47.9-3.3c-16.4-7.8-16.3-34.3-32.8-41.9c-0.5-0.2-1-0.4-1.6-0.6
						c-9.8,11.3-16.6,21.5-21.2,29.6l0,0c-10.3,17.2-17,33.7-21.2,48.2c-0.5,1.6-0.9,3.2-1.4,4.8c0,0.2-0.1,0.4-0.2,0.6
						c-2.7,10-5,21.2-6.2,33.4c36.2,10.8,77.8-13.4,111.8,3.1c15.5,7.6,26.2,22.5,41.3,30.8c26.2,14.5,62.2,7.6,84.1,28
						c9.5,8.9,14.4,21.4,20.4,32.9c13.5,25.8,35.6,36.8,63.9,32.8c24.1-3.4,54-16.3,76.1-0.1c2.1-3.7,4-7.4,5.9-11.3
						c0-0.1,0.1-0.2,0.1-0.3c0-0.1,0.1-0.2,0.1-0.3c0.6-1.2,1.2-2.5,1.8-3.9c0.4-0.8,0.8-1.6,1.1-2.5c0.1-0.3,0.2-0.6,0.4-0.8
						c1.1-2.4,2.1-4.9,3.2-7.4c0.7-1.8,1.4-3.6,2.1-5.6C452.6,114.5,449.7,113.1,446.6,111.9L446.6,111.9z M164.8-150.4
						c-0.3,0.1-0.6,0.3-0.9,0.4c-0.3,0.1-0.6,0.2-0.8,0.4c-0.6,0.3-1.2,0.6-1.9,0.9c-0.6,0.3-1.3,0.6-1.9,1c-1.5,0.8-3,1.5-4.5,2.3
						c-7.9,4.1-16.2,9.1-24.6,15.3c-1,0.7-2.1,1.5-3.1,2.3c-0.2,0.1-0.4,0.3-0.6,0.4c-1.3,1-2.6,2.1-3.9,3.1
						c20.5,6.5,40.9,13.3,60.9,21.1c45.6,17.7,90.1,40.5,125.9,74.3C322.6-16.2,335.6-1.7,353.3,3c13.8,3.7,28.9,0.8,42.4,5.5
						c17,5.9,27.6,22.3,39.1,36.2c9.2,11.2,19.8,21.2,31.3,30c0.1-1,0.3-2,0.4-2.9c4.7-32.2,1.8-64.5-8.6-95.3
						c-6.9-3.2-13.7-6.5-20.4-9.3c-30.4-13.1-60.8-26.2-91.1-39.3c-17.6-7.6-35.7-15.5-49-29.3c-12.2-12.6-19.7-29.2-32.1-41.7
						c-12.8-12.9-29.6-20.1-47.4-23.9c-2.9,0.5-5.9,1.1-8.4,1.7c-1.6,0.4-3.4,0.8-5.3,1.3c-3.4,0.8-6.7,1.6-9.6,2.5
						c-0.7,0.2-1.4,0.4-2.1,0.6c0.1,0,0.2-0.1,0.3-0.1c-0.2,0.1-0.4,0.1-0.6,0.2c-6.9,2.1-15.3,5-25.6,9.8
						C165.9-150.9,165.3-150.6,164.8-150.4L164.8-150.4z"/>
				</g>
				<g class="st7">
					
						<image style="overflow:visible;enable-background:new    ;" width="373" height="359" xlink:href="AF2721B6.png"  transform="matrix(1 0 0 1 -1.5 -58)">
					</image>
				</g>
				<g>
					
						<image style="overflow:visible;enable-background:new    ;" width="240" height="307" xlink:href="AF2721B9.png"  transform="matrix(1 0 0 1 262.5 -165)">
					</image>
					<g>
						
							<image style="overflow:visible;enable-background:new    ;" width="189" height="173" xlink:href="AF2721BA.png"  transform="matrix(1 0 0 1 99.5 -170)">
						</image>
					</g>
				</g>
			</g>
		</g>
	</g>
	<g id="pin-ringPlanet">
		<g>
			<g>
				<g>
					<defs>
						<path id="SVGID_00000038392962203566840710000005351376036835413655_" d="M1382.7,32.5c-0.1-0.9-0.1-1.7-0.1-2.5
							c-0.3-7.6,0.2-16.5,2.4-26.3l0,0c0.9-4.8,2.7-11.2,5.8-18.5c0.7-1.8,1.6-3.8,2.6-5.7c0.2-0.5,0.5-1,0.7-1.4
							c0.1-0.2,0.2-0.4,0.3-0.5c0.3-0.5,0.5-1,0.8-1.5c1.4-2.7,2.9-5.2,4.4-7.6c0.5-0.8,1-1.5,1.5-2.3c0.1-0.1,0.1-0.2,0.2-0.3
							c0.4-0.5,0.7-1.1,1.1-1.6c3-4.3,6.2-8,9.3-11.2c0.6-0.6,1.2-1.2,1.8-1.8c0.3-0.3,0.5-0.5,0.8-0.8c0.2-0.2,0.5-0.5,0.7-0.7
							c0.1-0.1,0.2-0.2,0.3-0.3c0.1-0.1,0.2-0.2,0.4-0.3c0.2-0.2,0.4-0.4,0.7-0.6c4.2-3.9,7.7-6.6,10.7-8.8c0.1-0.1,0.2-0.1,0.2-0.2
							c0,0-0.1,0.1-0.1,0.1c0.3-0.2,0.6-0.4,0.9-0.6c1.2-0.9,2.7-1.8,4.2-2.7c0.8-0.5,1.6-1,2.3-1.5c1.9-1.2,4.6-2.6,6.6-3.6
							c0,0,0,0,0.1,0c1-0.5,1.9-1,2.9-1.4c0,0,0,0,0,0c0,0,0.1,0,0.1,0c0.6-0.3,1.1-0.5,1.7-0.8c0.8-0.3,1.4-0.6,2.2-0.9
							c2.2-0.9,4.4-1.8,6.8-2.7c0,0,0,0,0.1,0c1.9-0.7,3.8-1.3,5.8-1.8c10.1-2.9,20.6-4.2,31.2-3.9c5.5,0.1,11.9,0.7,18.7,2.1
							l0.8,0.2l0,0l0,0l0,0l0,0c0,0,0,0,0,0c0,0,0.1,0,0.1,0c1.8,0.4,3.7,0.8,5.6,1.3c1.3,0.3,2.8,0.8,4.1,1.2c0,0,0.1,0,0.1,0
							c0.1,0,0.3,0.1,0.4,0.1l0,0l0,0c0,0,0,0,0,0c2.1,0.7,3,1,4.6,1.6c0.2,0.1,0.4,0.1,0.5,0.2c0,0,0,0,0,0
							c1.7,0.6,2.9,1.1,4.4,1.7c1,0.4,1.9,0.8,2.9,1.2c0.1,0,0.1,0.1,0.2,0.1c1.2,0.6,2.4,1.1,3.7,1.8c0.1,0,0.1,0.1,0.1,0.1
							c1.1,0.5,2.1,1.1,3.2,1.7c0.7,0.4,1.4,0.8,2.2,1.2c0.3,0.2,0.6,0.3,0.8,0.5c7.2,4.2,12.4,8.4,15.5,11.2
							c0.3,0.3,0.6,0.5,0.7,0.6c0,0,0,0,0,0c1.4,1.3,2.8,2.5,3.8,3.5c0.3,0.3,0.7,0.7,1.1,1c0,0,0.1,0.1,0.1,0.1l0.1,0.1
							c1.7,1.7,3.8,3.9,6.3,6.9c11.9,14.1,19.8,30.7,23,48.7c0.1,0.5,0.2,1,0.3,1.6c0,0.1,0,0.1,0,0.2c0.5,2.8,0.9,5.6,1.1,8.1
							c0,0.1,0,0.3,0,0.5c0.2,1.9,0.3,4.1,0.3,6.2c0,0.3,0.1,0.7,0.1,1l0,1.1c0,0.8,0,1.5,0,2.2c0,1.8,0,3.5-0.1,5.1
							c-0.1,1.4-0.2,2.7-0.3,4c0,0.1,0,0.3,0,0.5c0,0.5-0.1,0.9-0.1,1.4c-0.1,0.8-0.2,1.5-0.2,2.1c0,0,0,0.1,0,0.1
							c0,0.1,0,0.1,0,0.2c-2.3,18-9,34.7-19.8,49.2c-0.3,0.4-0.6,0.7-0.8,1.1c-0.1,0.2-0.2,0.3-0.4,0.5c-0.4,0.5-0.8,1-1.2,1.5
							c-9,11.4-19.8,20.2-31.1,26.6c-19.4,11.2-39.7,15.3-58.3,13.7c0,0,0,0-0.1,0c-0.2,0-0.3,0-0.5,0c-0.9-0.1-1.8-0.1-2.7-0.2
							c-0.3,0-0.7-0.1-1.1-0.1c-0.5,0-1-0.1-1.4-0.1l0,0l0,0c0,0,0,0,0,0l0,0l0,0c-0.6-0.1-1.1-0.1-1.6-0.2c0,0-0.1,0-0.1,0
							c-2.1-0.3-3.5-0.5-3.6-0.5l0,0l0,0c-1.8-0.3-2.9-0.5-4.9-0.9c-0.1,0-0.2,0-0.3-0.1l0,0l0,0l0,0h0h0c-0.1,0-0.3-0.1-0.4-0.1
							c-0.1,0-0.3-0.1-0.4-0.1c-0.8-0.2-1.6-0.3-2.4-0.5l-0.4-0.1l-1.4-0.4c0,0-0.1,0-0.1,0l0,0c-1.4-0.3-3.2-0.9-4.7-1.3
							c0,0-0.1,0-0.1,0c-0.1,0-0.3-0.1-0.4-0.1c-0.3-0.1-0.5-0.2-0.8-0.2c-0.1,0-0.1,0-0.2-0.1c-1.5-0.5-2.4-0.8-3.8-1.3
							c-0.1,0-0.3-0.1-0.4-0.1c0,0-0.1,0-0.1,0c-0.9-0.3-1.9-0.7-2.9-1.1c-0.4-0.2-0.8-0.3-1.2-0.5c-0.4-0.2-0.9-0.4-1.3-0.6
							c-0.5-0.2-1-0.4-1.5-0.7c-1.9-0.9-3.7-1.8-5.4-2.7c0,0-0.1,0-0.1-0.1c-9.7-5.1-16.6-10.5-20.4-13.9c-0.3-0.3-0.6-0.5-0.7-0.6
							c-1-0.9-2-1.8-2.9-2.7c-0.3-0.3-0.6-0.5-0.9-0.8c-1.1-1.1-2.9-2.9-4.9-5.1c-3.8-4.1-7.1-8.4-10-12.8c-0.4-0.7-0.9-1.4-1.3-2
							c-0.3-0.5-0.6-1-0.9-1.6c-6.2-10.1-9.7-19.6-11.7-27.3c-0.2-0.6-0.3-1.2-0.4-1.8c0-0.1-0.1-0.2-0.1-0.3
							c-1.8-7-2.7-13.6-3-19.5C1382.7,32.7,1382.7,32.6,1382.7,32.5z"/>
					</defs>
					<clipPath id="SVGID_00000009583796308009371340000004181884708910671769_">
						<use xlink:href="#SVGID_00000038392962203566840710000005351376036835413655_"  style="overflow:visible;"/>
					</clipPath>
					<g style="clip-path:url(#SVGID_00000009583796308009371340000004181884708910671769_);">
						<g>
							
								<radialGradient id="SVGID_00000155130887201907917720000011752643912586035336_" cx="9999.709" cy="-5779.7622" r="269.2238" gradientTransform="matrix(-0.3337 -0.3381 0.3381 -0.3337 6773.6631 1493.8063)" gradientUnits="userSpaceOnUse">
								<stop  offset="2.740000e-02" style="stop-color:#F092C9"/>
								<stop  offset="0.2129" style="stop-color:#F196CB"/>
								<stop  offset="0.3997" style="stop-color:#F2A2D1"/>
								<stop  offset="0.5872" style="stop-color:#F5B6DB"/>
								<stop  offset="0.7752" style="stop-color:#F9D3E9"/>
								<stop  offset="0.9618" style="stop-color:#FEF7FB"/>
								<stop  offset="1" style="stop-color:#FFFFFF"/>
							</radialGradient>
							<path style="fill:url(#SVGID_00000155130887201907917720000011752643912586035336_);" d="M1382.7,32.5
								c-0.1-0.9-0.1-1.7-0.1-2.5c-0.3-7.6,0.2-16.5,2.4-26.3l0,0c0.9-4.8,2.7-11.2,5.8-18.5c0.7-1.8,1.6-3.8,2.6-5.7
								c0.2-0.5,0.5-1,0.7-1.4c0.1-0.2,0.2-0.4,0.3-0.5c0.3-0.5,0.5-1,0.8-1.5c1.4-2.7,2.9-5.2,4.4-7.6c0.5-0.8,1-1.5,1.5-2.3
								c0.1-0.1,0.1-0.2,0.2-0.3c0.4-0.5,0.7-1.1,1.1-1.6c3-4.3,6.2-8,9.3-11.2c0.6-0.6,1.2-1.2,1.8-1.8c0.3-0.3,0.5-0.5,0.8-0.8
								c0.2-0.2,0.5-0.5,0.7-0.7c0.1-0.1,0.2-0.2,0.3-0.3c0.1-0.1,0.2-0.2,0.4-0.3c0.2-0.2,0.4-0.4,0.7-0.6
								c4.2-3.9,7.7-6.6,10.7-8.8c0.1-0.1,0.2-0.1,0.2-0.2c0,0-0.1,0.1-0.1,0.1c0.3-0.2,0.6-0.4,0.9-0.6c1.2-0.9,2.7-1.8,4.2-2.7
								c0.8-0.5,1.6-1,2.3-1.5c1.9-1.2,4.6-2.6,6.6-3.6c0,0,0,0,0.1,0c1-0.5,1.9-1,2.9-1.4c0,0,0,0,0,0c0,0,0.1,0,0.1,0
								c0.6-0.3,1.1-0.5,1.7-0.8c0.8-0.3,1.4-0.6,2.2-0.9c2.2-0.9,4.4-1.8,6.8-2.7c0,0,0,0,0.1,0c1.9-0.7,3.8-1.3,5.8-1.8
								c10.1-2.9,20.6-4.2,31.2-3.9c5.5,0.1,11.9,0.7,18.7,2.1l0.8,0.2l0,0l0,0l0,0l0,0c0,0,0,0,0,0c0,0,0.1,0,0.1,0
								c1.8,0.4,3.7,0.8,5.6,1.3c1.3,0.3,2.8,0.8,4.1,1.2c0,0,0.1,0,0.1,0c0.1,0,0.3,0.1,0.4,0.1l0,0l0,0c0,0,0,0,0,0
								c2.1,0.7,3,1,4.6,1.6c0.2,0.1,0.4,0.1,0.5,0.2c0,0,0,0,0,0c1.7,0.6,2.9,1.1,4.4,1.7c1,0.4,1.9,0.8,2.9,1.2
								c0.1,0,0.1,0.1,0.2,0.1c1.2,0.6,2.4,1.1,3.7,1.8c0.1,0,0.1,0.1,0.1,0.1c1.1,0.5,2.1,1.1,3.2,1.7c0.7,0.4,1.4,0.8,2.2,1.2
								c0.3,0.2,0.6,0.3,0.8,0.5c7.2,4.2,12.4,8.4,15.5,11.2c0.3,0.3,0.6,0.5,0.7,0.6c0,0,0,0,0,0c1.4,1.3,2.8,2.5,3.8,3.5
								c0.3,0.3,0.7,0.7,1.1,1c0,0,0.1,0.1,0.1,0.1l0.1,0.1c1.7,1.7,3.8,3.9,6.3,6.9c11.9,14.1,19.8,30.7,23,48.7
								c0.1,0.5,0.2,1,0.3,1.6c0,0.1,0,0.1,0,0.2c0.5,2.8,0.9,5.6,1.1,8.1c0,0.1,0,0.3,0,0.5c0.2,1.9,0.3,4.1,0.3,6.2
								c0,0.3,0.1,0.7,0.1,1l0,1.1c0,0.8,0,1.5,0,2.2c0,1.8,0,3.5-0.1,5.1c-0.1,1.4-0.2,2.7-0.3,4c0,0.1,0,0.3,0,0.5
								c0,0.5-0.1,0.9-0.1,1.4c-0.1,0.8-0.2,1.5-0.2,2.1c0,0,0,0.1,0,0.1c0,0.1,0,0.1,0,0.2c-2.3,18-9,34.7-19.8,49.2
								c-0.3,0.4-0.6,0.7-0.8,1.1c-0.1,0.2-0.2,0.3-0.4,0.5c-0.4,0.5-0.8,1-1.2,1.5c-9,11.4-19.8,20.2-31.1,26.6
								c-19.4,11.2-39.7,15.3-58.3,13.7c0,0,0,0-0.1,0c-0.2,0-0.3,0-0.5,0c-0.9-0.1-1.8-0.1-2.7-0.2c-0.3,0-0.7-0.1-1.1-0.1
								c-0.5,0-1-0.1-1.4-0.1l0,0l0,0c0,0,0,0,0,0l0,0l0,0c-0.6-0.1-1.1-0.1-1.6-0.2c0,0-0.1,0-0.1,0c-2.1-0.3-3.5-0.5-3.6-0.5l0,0
								l0,0c-1.8-0.3-2.9-0.5-4.9-0.9c-0.1,0-0.2,0-0.3-0.1l0,0l0,0l0,0h0h0c-0.1,0-0.3-0.1-0.4-0.1c-0.1,0-0.3-0.1-0.4-0.1
								c-0.8-0.2-1.6-0.3-2.4-0.5l-0.4-0.1l-1.4-0.4c0,0-0.1,0-0.1,0l0,0c-1.4-0.3-3.2-0.9-4.7-1.3c0,0-0.1,0-0.1,0
								c-0.1,0-0.3-0.1-0.4-0.1c-0.3-0.1-0.5-0.2-0.8-0.2c-0.1,0-0.1,0-0.2-0.1c-1.5-0.5-2.4-0.8-3.8-1.3c-0.1,0-0.3-0.1-0.4-0.1
								c0,0-0.1,0-0.1,0c-0.9-0.3-1.9-0.7-2.9-1.1c-0.4-0.2-0.8-0.3-1.2-0.5c-0.4-0.2-0.9-0.4-1.3-0.6c-0.5-0.2-1-0.4-1.5-0.7
								c-1.9-0.9-3.7-1.8-5.4-2.7c0,0-0.1,0-0.1-0.1c-9.7-5.1-16.6-10.5-20.4-13.9c-0.3-0.3-0.6-0.5-0.7-0.6c-1-0.9-2-1.8-2.9-2.7
								c-0.3-0.3-0.6-0.5-0.9-0.8c-1.1-1.1-2.9-2.9-4.9-5.1c-3.8-4.1-7.1-8.4-10-12.8c-0.4-0.7-0.9-1.4-1.3-2
								c-0.3-0.5-0.6-1-0.9-1.6c-6.2-10.1-9.7-19.6-11.7-27.3c-0.2-0.6-0.3-1.2-0.4-1.8c0-0.1-0.1-0.2-0.1-0.3
								c-1.8-7-2.7-13.6-3-19.5C1382.7,32.7,1382.7,32.6,1382.7,32.5z"/>
							<g class="st7">
								
									<image style="overflow:visible;enable-background:new    ;" width="234" height="226" xlink:href="AF2721BB.png"  transform="matrix(1 0 0 1 1334.981 -46.0891)">
								</image>
							</g>
							<g>
								<g>
									
										<image style="overflow:visible;enable-background:new    ;" width="162" height="199" xlink:href="AF2721BE.png"  transform="matrix(1 0 0 1 1476.981 -104.0891)">
									</image>
								</g>
							</g>
						</g>
					</g>
				</g>
			</g>
			<g>
				
					<image style="overflow:visible;opacity:0.75;enable-background:new    ;" width="318" height="183" xlink:href="AF2721B8.png"  transform="matrix(1 0 0 1 1330.981 -65.0891)">
				</image>
				<g>
					<path class="st9" d="M1567.1-47.2c0.5,0.5,1,1.1,1.5,1.6c32.5-5.2,55.8-2.2,61.3,10.2c10.1,23-44.6,69.4-121.9,103.5
						c-77.4,34.1-148.6,43.2-158.7,20.3c-4.1-9.3,2.5-22.6,17-37.3c4.8-4.8,10.4-9.8,16.7-14.8c-0.1-0.7-0.1-1.5-0.2-2.2
						c-27.1,21.5-41.3,41.9-35.4,55.2c10.6,24,83,15.4,161.4-19.2c45.7-20.2,83.5-44.8,105-66.6c15.4-15.6,22.4-29.7,18-39.7
						C1626-49.5,1601.3-52.8,1567.1-47.2z"/>
				</g>
			</g>
			<path class="st9" d="M1511.9,78.2c0,0-15.4,1.2-23.1,8.7c-8.5,8.3-8.7,36.5-8.7,36.5s-0.2-28.2-8.7-36.5
				c-7.7-7.5-23.1-8.7-23.1-8.7s15.4-1.2,23.1-8.7c8.5-8.3,8.7-36.5,8.7-36.5s0.2,28.2,8.7,36.5C1496.5,77,1511.9,78.2,1511.9,78.2z
				"/>
			<path class="st9" d="M1532.9-39.5c0,0-10.2,0.8-15.3,5.8c-5.6,5.5-5.8,24.1-5.8,24.1s-0.1-18.6-5.8-24.1
				c-5.1-5-15.3-5.8-15.3-5.8s10.2-0.8,15.3-5.8c5.6-5.5,5.8-24.1,5.8-24.1s0.1,18.6,5.8,24.1C1522.7-40.3,1532.9-39.5,1532.9-39.5z
				"/>
			<path class="st9" d="M1617.2,32.9c0,0-3.2,0.2-4.7,1.8c-1.8,1.7-1.8,7.5-1.8,7.5s0-5.8-1.8-7.5c-1.6-1.5-4.7-1.8-4.7-1.8
				s3.2-0.2,4.7-1.8c1.8-1.7,1.8-7.5,1.8-7.5s0,5.8,1.8,7.5C1614.1,32.7,1617.2,32.9,1617.2,32.9z"/>
			<path class="st9" d="M1441.5,46.6c0,0-4.6,0.4-7,2.6c-2.6,2.5-2.6,11-2.6,11s-0.1-8.5-2.6-11c-2.3-2.3-7-2.6-7-2.6s4.6-0.4,7-2.6
				c2.6-2.5,2.6-11,2.6-11s0.1,8.5,2.6,11C1436.9,46.2,1441.5,46.6,1441.5,46.6z"/>
		</g>
	</g>
</g>
<g id="trun-sPlanet" style="clip-path:url(#SVGID_00000152228125036666195980000015387077965750323871_);">
	<defs>
		<path id="SVGID_00000096056214315898292060000012313999754199518386_" d="M491.6,293.2c0-0.3,0-0.7,0-1c-0.1-3,0.1-6.5,1-10.5l0,0
			c0.4-1.9,1.1-4.4,2.3-7.4c0.3-0.7,0.7-1.5,1-2.3c0.1-0.2,0.2-0.4,0.3-0.6c0-0.1,0.1-0.1,0.1-0.2c0.1-0.2,0.2-0.4,0.3-0.6
			c0.6-1.1,1.2-2.1,1.8-3c0.2-0.3,0.4-0.6,0.6-0.9c0,0,0-0.1,0.1-0.1c0.2-0.2,0.3-0.4,0.4-0.6c1.2-1.7,2.5-3.2,3.7-4.5
			c0.2-0.2,0.5-0.5,0.7-0.7c0.1-0.1,0.2-0.2,0.3-0.3s0.2-0.2,0.3-0.3c0,0,0.1-0.1,0.1-0.1c0,0,0.1-0.1,0.1-0.1
			c0.1-0.1,0.2-0.2,0.3-0.2c1.7-1.6,3.1-2.6,4.2-3.5c0,0,0.1-0.1,0.1-0.1c0,0,0,0,0,0c0.1-0.1,0.2-0.2,0.4-0.2
			c0.5-0.4,1.1-0.7,1.7-1.1c0.3-0.2,0.6-0.4,0.9-0.6c0.8-0.5,1.8-1.1,2.6-1.4c0,0,0,0,0,0c0.4-0.2,0.8-0.4,1.2-0.6c0,0,0,0,0,0
			s0,0,0,0c0.2-0.1,0.5-0.2,0.7-0.3c0.3-0.1,0.6-0.2,0.9-0.4c0.9-0.4,1.8-0.7,2.7-1.1c0,0,0,0,0,0c0.8-0.3,1.5-0.5,2.3-0.7
			c4-1.1,8.2-1.7,12.4-1.6c2.2,0,4.7,0.3,7.4,0.8l0.3,0.1l0,0l0,0l0,0c0,0,0,0,0,0c0,0,0,0,0,0c0.7,0.1,1.5,0.3,2.2,0.5
			c0.5,0.1,1.1,0.3,1.6,0.5c0,0,0,0,0,0c0,0,0.1,0,0.2,0.1l0,0l0,0l0,0c0.8,0.3,1.2,0.4,1.8,0.6c0.1,0,0.1,0.1,0.2,0.1l0,0
			c0.7,0.2,1.2,0.4,1.7,0.7c0.4,0.2,0.8,0.3,1.1,0.5c0,0,0,0,0.1,0c0.5,0.2,1,0.4,1.5,0.7c0,0,0,0,0,0c0.4,0.2,0.8,0.4,1.2,0.7
			c0.3,0.2,0.6,0.3,0.9,0.5c0.1,0.1,0.2,0.1,0.3,0.2c2.8,1.7,4.9,3.3,6.2,4.4c0.1,0.1,0.2,0.2,0.3,0.2l0,0c0.6,0.5,1.1,1,1.5,1.4
			c0.1,0.1,0.3,0.3,0.4,0.4c0,0,0,0,0,0l0,0c0.7,0.7,1.5,1.5,2.5,2.8c4.7,5.6,7.8,12.2,9.2,19.3c0,0.2,0.1,0.4,0.1,0.6
			c0,0,0,0,0,0.1c0.2,1.1,0.3,2.2,0.4,3.2c0,0.1,0,0.1,0,0.2c0.1,0.8,0.1,1.6,0.1,2.5c0,0.1,0,0.3,0,0.4v0.4c0,0.3,0,0.6,0,0.9
			c0,0.7,0,1.4,0,2c0,0.5-0.1,1.1-0.1,1.6c0,0.1,0,0.1,0,0.2c0,0.2,0,0.4,0,0.5c0,0.3-0.1,0.6-0.1,0.9c0,0,0,0,0,0.1s0,0,0,0.1
			c-0.9,7.1-3.6,13.8-7.9,19.6c-0.1,0.1-0.2,0.3-0.3,0.4c0,0.1-0.1,0.1-0.2,0.2c-0.2,0.2-0.3,0.4-0.5,0.6c-3.6,4.5-7.9,8-12.3,10.5
			c-7.7,4.5-15.8,6.1-23.2,5.5h0c-0.1,0-0.1,0-0.2,0c-0.3,0-0.7,0-1.1-0.1c-0.1,0-0.3,0-0.4,0c-0.2,0-0.4,0-0.6-0.1l0,0l0,0
			c0,0,0,0,0,0l0,0l0,0c-0.2,0-0.4,0-0.6-0.1c0,0,0,0,0,0c-0.8-0.1-1.4-0.2-1.4-0.2l0,0l0,0c-0.7-0.1-1.2-0.2-1.9-0.4
			c0,0-0.1,0-0.1,0l0,0l0,0l0,0l0,0c-0.1,0-0.1,0-0.2,0s-0.1,0-0.2,0c-0.3-0.1-0.6-0.1-1-0.2l-0.2,0l-0.6-0.1c0,0,0,0,0,0h0
			c-0.6-0.1-1.3-0.4-1.8-0.5c0,0,0,0,0,0c0,0-0.1,0-0.2,0c-0.1,0-0.2-0.1-0.3-0.1c0,0,0,0-0.1,0c-0.6-0.2-1-0.3-1.5-0.5
			c0,0-0.1,0-0.2,0c0,0,0,0,0,0c-0.4-0.1-0.8-0.3-1.1-0.4c-0.2-0.1-0.3-0.1-0.5-0.2c-0.2-0.1-0.3-0.1-0.5-0.2
			c-0.2-0.1-0.4-0.2-0.6-0.3c-0.8-0.3-1.5-0.7-2.2-1c0,0,0,0,0,0c-3.8-2-6.6-4.2-8.1-5.5c-0.1-0.1-0.2-0.2-0.3-0.2
			c-0.4-0.4-0.8-0.7-1.2-1.1c-0.1-0.1-0.2-0.2-0.3-0.3c-0.5-0.4-1.2-1.1-1.9-2c-1.5-1.6-2.8-3.4-4-5.1c-0.2-0.3-0.3-0.5-0.5-0.8
			c-0.1-0.2-0.2-0.4-0.4-0.6c-2.5-4-3.9-7.8-4.6-10.8c-0.1-0.2-0.1-0.5-0.2-0.7c0,0,0-0.1,0-0.1c-0.7-2.8-1.1-5.4-1.2-7.8
			C491.6,293.4,491.6,293.3,491.6,293.2L491.6,293.2z"/>
	</defs>
	<clipPath id="SVGID_00000155834116770246612430000000153361299871710618_">
		<use xlink:href="#SVGID_00000096056214315898292060000012313999754199518386_"  style="overflow:visible;"/>
	</clipPath>
	<g style="clip-path:url(#SVGID_00000155834116770246612430000000153361299871710618_);">
		<g>
			
				<radialGradient id="SVGID_00000183931186678635910040000002364836083330265221_" cx="10351.5342" cy="-7172.3022" r="106.89" gradientTransform="matrix(1 0 0 -1 0 1024)" gradientUnits="userSpaceOnUse">
				<stop  offset="3.000000e-02" style="stop-color:#F092C9"/>
				<stop  offset="0.21" style="stop-color:#F096CA"/>
				<stop  offset="0.4" style="stop-color:#F2A2D0"/>
				<stop  offset="0.59" style="stop-color:#F4B6DA"/>
				<stop  offset="0.78" style="stop-color:#F8D2E9"/>
				<stop  offset="0.96" style="stop-color:#FDF6FA"/>
				<stop  offset="1" style="stop-color:#FFFFFF"/>
			</radialGradient>
			<path style="fill:url(#SVGID_00000183931186678635910040000002364836083330265221_);" d="M491.6,293.2c0-0.3,0-0.7,0-1
				c-0.1-3,0.1-6.5,1-10.5l0,0c0.4-1.9,1.1-4.4,2.3-7.4c0.3-0.7,0.7-1.5,1-2.3c0.1-0.2,0.2-0.4,0.3-0.6c0-0.1,0.1-0.1,0.1-0.2
				c0.1-0.2,0.2-0.4,0.3-0.6c0.6-1.1,1.2-2.1,1.8-3c0.2-0.3,0.4-0.6,0.6-0.9c0,0,0-0.1,0.1-0.1c0.2-0.2,0.3-0.4,0.4-0.6
				c1.2-1.7,2.5-3.2,3.7-4.5c0.2-0.2,0.5-0.5,0.7-0.7c0.1-0.1,0.2-0.2,0.3-0.3s0.2-0.2,0.3-0.3c0,0,0.1-0.1,0.1-0.1
				c0,0,0.1-0.1,0.1-0.1c0.1-0.1,0.2-0.2,0.3-0.2c1.7-1.6,3.1-2.6,4.2-3.5c0,0,0.1-0.1,0.1-0.1c0,0,0,0,0,0c0.1-0.1,0.2-0.2,0.4-0.2
				c0.5-0.4,1.1-0.7,1.7-1.1c0.3-0.2,0.6-0.4,0.9-0.6c0.8-0.5,1.8-1.1,2.6-1.4c0,0,0,0,0,0c0.4-0.2,0.8-0.4,1.2-0.6c0,0,0,0,0,0
				s0,0,0,0c0.2-0.1,0.5-0.2,0.7-0.3c0.3-0.1,0.6-0.2,0.9-0.4c0.9-0.4,1.8-0.7,2.7-1.1c0,0,0,0,0,0c0.8-0.3,1.5-0.5,2.3-0.7
				c4-1.1,8.2-1.7,12.4-1.6c2.2,0,4.7,0.3,7.4,0.8l0.3,0.1l0,0l0,0l0,0c0,0,0,0,0,0c0,0,0,0,0,0c0.7,0.1,1.5,0.3,2.2,0.5
				c0.5,0.1,1.1,0.3,1.6,0.5c0,0,0,0,0,0c0,0,0.1,0,0.2,0.1l0,0l0,0l0,0c0.8,0.3,1.2,0.4,1.8,0.6c0.1,0,0.1,0.1,0.2,0.1l0,0
				c0.7,0.2,1.2,0.4,1.7,0.7c0.4,0.2,0.8,0.3,1.1,0.5c0,0,0,0,0.1,0c0.5,0.2,1,0.4,1.5,0.7c0,0,0,0,0,0c0.4,0.2,0.8,0.4,1.2,0.7
				c0.3,0.2,0.6,0.3,0.9,0.5c0.1,0.1,0.2,0.1,0.3,0.2c2.8,1.7,4.9,3.3,6.2,4.4c0.1,0.1,0.2,0.2,0.3,0.2l0,0c0.6,0.5,1.1,1,1.5,1.4
				c0.1,0.1,0.3,0.3,0.4,0.4c0,0,0,0,0,0l0,0c0.7,0.7,1.5,1.5,2.5,2.8c4.7,5.6,7.8,12.2,9.2,19.3c0,0.2,0.1,0.4,0.1,0.6
				c0,0,0,0,0,0.1c0.2,1.1,0.3,2.2,0.4,3.2c0,0.1,0,0.1,0,0.2c0.1,0.8,0.1,1.6,0.1,2.5c0,0.1,0,0.3,0,0.4v0.4c0,0.3,0,0.6,0,0.9
				c0,0.7,0,1.4,0,2c0,0.5-0.1,1.1-0.1,1.6c0,0.1,0,0.1,0,0.2c0,0.2,0,0.4,0,0.5c0,0.3-0.1,0.6-0.1,0.9c0,0,0,0,0,0.1s0,0,0,0.1
				c-0.9,7.1-3.6,13.8-7.9,19.6c-0.1,0.1-0.2,0.3-0.3,0.4c0,0.1-0.1,0.1-0.2,0.2c-0.2,0.2-0.3,0.4-0.5,0.6c-3.6,4.5-7.9,8-12.3,10.5
				c-7.7,4.5-15.8,6.1-23.2,5.5h0c-0.1,0-0.1,0-0.2,0c-0.3,0-0.7,0-1.1-0.1c-0.1,0-0.3,0-0.4,0c-0.2,0-0.4,0-0.6-0.1l0,0l0,0
				c0,0,0,0,0,0l0,0l0,0c-0.2,0-0.4,0-0.6-0.1c0,0,0,0,0,0c-0.8-0.1-1.4-0.2-1.4-0.2l0,0l0,0c-0.7-0.1-1.2-0.2-1.9-0.4
				c0,0-0.1,0-0.1,0l0,0l0,0l0,0l0,0c-0.1,0-0.1,0-0.2,0s-0.1,0-0.2,0c-0.3-0.1-0.6-0.1-1-0.2l-0.2,0l-0.6-0.1c0,0,0,0,0,0h0
				c-0.6-0.1-1.3-0.4-1.8-0.5c0,0,0,0,0,0c0,0-0.1,0-0.2,0c-0.1,0-0.2-0.1-0.3-0.1c0,0,0,0-0.1,0c-0.6-0.2-1-0.3-1.5-0.5
				c0,0-0.1,0-0.2,0c0,0,0,0,0,0c-0.4-0.1-0.8-0.3-1.1-0.4c-0.2-0.1-0.3-0.1-0.5-0.2c-0.2-0.1-0.3-0.1-0.5-0.2
				c-0.2-0.1-0.4-0.2-0.6-0.3c-0.8-0.3-1.5-0.7-2.2-1c0,0,0,0,0,0c-3.8-2-6.6-4.2-8.1-5.5c-0.1-0.1-0.2-0.2-0.3-0.2
				c-0.4-0.4-0.8-0.7-1.2-1.1c-0.1-0.1-0.2-0.2-0.3-0.3c-0.5-0.4-1.2-1.1-1.9-2c-1.5-1.6-2.8-3.4-4-5.1c-0.2-0.3-0.3-0.5-0.5-0.8
				c-0.1-0.2-0.2-0.4-0.4-0.6c-2.5-4-3.9-7.8-4.6-10.8c-0.1-0.2-0.1-0.5-0.2-0.7c0,0,0-0.1,0-0.1c-0.7-2.8-1.1-5.4-1.2-7.8
				C491.6,293.4,491.6,293.3,491.6,293.2L491.6,293.2z"/>
			<path class="st23" d="M481,287.1c-1-4.4-1.6-8.6-1.8-12.4c0-0.1,0-0.2,0-0.3c0-0.7-0.1-1.4-0.1-2.1c-0.1-2.2,0-4.6,0.1-7.1
				c65.7,6.6,133.6-2.4,194.7-25.4c1.6,4.1,2.8,8.3,3.7,12.7c0.1,0.4,0.2,0.9,0.3,1.3c0,0.1,0,0.1,0,0.2c0.5,2.3,0.8,4.7,1,6.8
				c0,0.1,0,0.3,0,0.4c0,0.1,0,0.1,0,0.2C616.5,284.1,547.8,293.1,481,287.1L481,287.1z M658.7,324c0.1-0.1,0.2-0.3,0.3-0.4
				c0.3-0.3,0.5-0.6,0.8-0.9c8.1-9.8,13.7-20.8,16.7-32.5c-57.1,21.9-120.4,31.4-182.2,27c0.4,0.5,0.8,1.1,1.2,1.6
				c2.7,3.7,5.8,7.3,9.3,10.8c1.8,1.8,3.5,3.4,4.6,4.3c0.3,0.2,0.5,0.5,0.8,0.7c0.9,0.8,1.8,1.5,2.8,2.3c0.1,0.1,0.3,0.3,0.7,0.5
				c3.4,2.7,9.4,7,17.8,11.1c41-0.7,82-6.8,121.1-17.9c1.7-1.7,3.5-3.4,5.1-5.2C657.9,324.9,658.3,324.5,658.7,324L658.7,324z
				 M629.8,191.6c-0.1-0.1-0.2-0.1-0.4-0.2c-0.7-0.3-1.3-0.7-2-1c-1-0.5-2-0.9-3-1.4c0,0-0.1,0-0.1-0.1c-1.1-0.5-2.3-1-3.4-1.5
				c0,0-0.1,0-0.2-0.1c-0.9-0.4-1.8-0.7-2.7-1.1c-0.3-0.1-0.5-0.2-0.8-0.3c-33.5,9-68.4,14-103.3,14.9c-1,0.8-2.1,1.6-3.3,2.6
				c-0.2,0.2-0.4,0.4-0.6,0.5c-0.1,0.1-0.2,0.2-0.3,0.3c-0.1,0.1-0.2,0.2-0.3,0.3c-0.2,0.2-0.5,0.4-0.7,0.6
				c-0.2,0.2-0.5,0.4-0.7,0.6c-0.6,0.5-1.1,1-1.7,1.5c-0.8,0.7-1.5,1.5-2.3,2.3C546.6,209.6,589.3,203.4,629.8,191.6L629.8,191.6z
				 M668.4,228.2c-3.4-5.9-7.5-11.5-12.4-16.7c-2.4-2.6-4.3-4.4-5.9-5.8l-0.1-0.1c0,0-0.1-0.1-0.1-0.1c-0.3-0.3-0.7-0.6-1-0.9
				c-0.5-0.5-1.2-1-1.9-1.6c-49.2,16.3-102.3,23.7-154.6,21.2c-0.5,0.8-1.1,1.6-1.6,2.5c-0.2,0.4-0.5,0.9-0.8,1.3
				c-0.1,0.1-0.2,0.3-0.3,0.4c-0.2,0.4-0.4,0.8-0.7,1.2c-0.9,1.6-1.7,3.3-2.4,4.8c-2.9,6.2-4.5,11.5-5.4,15.6l0,0
				c-0.3,1.3-0.5,2.6-0.8,3.9C544.1,258.4,609,249.4,668.4,228.2L668.4,228.2z M677.8,284.6c0.2-1.1,0.4-2.2,0.6-3.3
				c0,0,0-0.1,0-0.1c0,0,0-0.1,0-0.1c0.1-0.6,0.2-1.2,0.2-1.8c0-0.4,0.1-0.8,0.1-1.1c0-0.1,0-0.2,0-0.4c0.1-1,0.2-2,0.3-3
				c-60.5,23.2-127.8,32.9-193.2,27.4c1.3,2.9,2.8,5.9,4.7,9.1C554,315.7,618.9,306.3,677.8,284.6L677.8,284.6z"/>
			
				<image style="overflow:visible;enable-background:new    ;" width="137" height="134" xlink:href="AF2721A6.png"  transform="matrix(1 0 0 1 450.524 239.6519)">
			</image>
			<g>
				
					<image style="overflow:visible;enable-background:new    ;" width="109" height="123" xlink:href="50A7DE5D.png"  transform="matrix(1 0 0 1 506.524 216.6519)">
				</image>
				<g>
					
						<image style="overflow:visible;enable-background:new    ;" width="97" height="95" xlink:href="50A7DE5A.png"  transform="matrix(1 0 0 1 472.524 215.6519)">
					</image>
				</g>
			</g>
		</g>
	</g>
</g>
<g id="turn-mPlanet" style="clip-path:url(#SVGID_00000152228125036666195980000015387077965750323871_);">
	<defs>
		<path id="SVGID_00000114041522993892811040000009615120829567463045_" d="M719.5,412.4c-0.3-0.5-0.6-1-0.9-1.6
			c-2.7-4.7-5.3-10.6-7.1-17.5l0,0c-1-3.4-2-8-2.4-13.7c-0.1-1.4-0.2-3-0.2-4.5c0-0.4,0-0.8,0-1.1c0-0.1,0-0.3,0-0.4
			c0-0.4,0-0.8,0-1.2c0-2.2,0.1-4.3,0.3-6.3c0.1-0.6,0.1-1.3,0.2-2c0-0.1,0-0.2,0-0.2c0.1-0.5,0.1-0.9,0.2-1.4
			c0.5-3.7,1.3-7.1,2.2-10.2c0.2-0.6,0.3-1.2,0.5-1.8c0.1-0.3,0.2-0.5,0.2-0.8c0.1-0.2,0.2-0.5,0.2-0.7c0-0.1,0.1-0.2,0.1-0.3
			s0.1-0.2,0.1-0.3c0.1-0.2,0.2-0.4,0.2-0.6c1.4-3.9,2.7-6.7,3.9-9.1c0-0.1,0.1-0.1,0.1-0.2c0,0,0,0.1,0,0.1
			c0.1-0.2,0.2-0.5,0.4-0.7c0.5-1,1.1-2,1.7-3.1c0.3-0.6,0.7-1.2,1-1.7c0.8-1.4,2-3.2,3-4.5c0,0,0,0,0,0c0.5-0.6,0.9-1.3,1.4-1.9
			c0,0,0,0,0,0c0,0,0,0,0,0c0.3-0.4,0.5-0.7,0.8-1c0.4-0.5,0.7-0.9,1.1-1.3c1.1-1.3,2.2-2.6,3.5-3.9c0,0,0,0,0,0c1-1,2-2.1,3.1-3.1
			c5.5-5.2,11.7-9.4,18.6-12.8c3.5-1.8,7.8-3.5,12.6-4.8l0.5-0.1l0,0l0,0l0,0c0,0,0,0,0,0c0,0,0,0,0,0c1.3-0.4,2.6-0.7,4-1
			c0.9-0.2,2-0.4,3-0.6c0,0,0,0,0.1,0c0.1,0,0.2,0,0.3,0l0,0l0,0c0,0,0,0,0,0c1.5-0.3,2.2-0.4,3.4-0.5c0.1,0,0.3,0,0.4,0l0,0
			c1.3-0.2,2.2-0.3,3.4-0.3c0.7-0.1,1.5-0.1,2.2-0.1c0,0,0.1,0,0.1,0c1,0,1.9-0.1,2.9-0.1c0,0,0.1,0,0.1,0c0.8,0,1.7,0,2.6,0
			c0.6,0,1.2,0,1.8,0.1c0.2,0,0.5,0,0.7,0c5.9,0.3,10.6,1.3,13.5,2c0.3,0.1,0.5,0.1,0.7,0.2l0,0c1.3,0.3,2.6,0.7,3.6,1
			c0.3,0.1,0.7,0.2,1,0.3c0,0,0.1,0,0.1,0l0.1,0c1.7,0.5,3.7,1.2,6.3,2.3c12.2,5,22.7,13,30.7,23.4c0.2,0.3,0.5,0.6,0.7,0.9
			c0,0,0.1,0.1,0.1,0.1c1.2,1.6,2.4,3.3,3.3,4.8c0.1,0.1,0.1,0.2,0.2,0.3c0.7,1.2,1.5,2.5,2.3,3.8c0.1,0.2,0.3,0.4,0.4,0.6l0.3,0.7
			c0.2,0.5,0.5,0.9,0.7,1.4c0.6,1.1,1.1,2.2,1.6,3.3c0.4,0.9,0.8,1.8,1.1,2.7c0,0.1,0.1,0.2,0.1,0.3c0.1,0.3,0.2,0.6,0.4,0.9
			c0.2,0.5,0.4,1,0.5,1.4c0,0,0,0.1,0,0.1c0,0,0,0.1,0,0.1c4.5,12.2,5.7,25.1,3.6,37.9c0,0.3-0.1,0.6-0.2,1c0,0.1,0,0.3-0.1,0.4
			c-0.1,0.5-0.2,0.9-0.3,1.4c-2,10.2-5.9,19.4-11,27.1c-8.6,13.5-20.2,22.8-32.6,27.9c0,0,0,0,0,0c-0.1,0-0.2,0.1-0.3,0.1
			c-0.6,0.3-1.2,0.5-1.8,0.8c-0.2,0.1-0.5,0.2-0.7,0.3c-0.3,0.1-0.6,0.3-0.9,0.4l0,0l0,0c0,0,0,0,0,0l0,0l0,0
			c-0.4,0.1-0.7,0.3-1.1,0.4c0,0,0,0,0,0c-1.4,0.5-2.4,0.8-2.5,0.9l0,0l0,0c-1.2,0.4-2,0.7-3.4,1c-0.1,0-0.2,0-0.2,0.1l0,0l0,0l0,0
			l0,0c-0.1,0-0.2,0-0.3,0.1c-0.1,0-0.2,0-0.3,0.1c-0.5,0.1-1.1,0.3-1.7,0.4l-0.3,0.1l-1,0.2c0,0,0,0-0.1,0h0
			c-1,0.3-2.3,0.5-3.4,0.7c0,0,0,0,0,0c-0.1,0-0.2,0-0.3,0c-0.2,0-0.4,0.1-0.6,0.1c0,0-0.1,0-0.2,0c-1.1,0.2-1.8,0.3-2.8,0.4
			c-0.1,0-0.2,0-0.3,0c0,0,0,0-0.1,0c-0.7,0.1-1.4,0.2-2.2,0.2c-0.3,0-0.6,0-0.9,0.1c-0.3,0-0.7,0.1-1,0.1c-0.4,0-0.8,0-1.2,0.1
			c-1.5,0.1-2.9,0.1-4.3,0.1c0,0-0.1,0-0.1,0c-7.8,0-14-1.2-17.5-2.1c-0.3-0.1-0.5-0.1-0.7-0.2c-0.9-0.2-1.8-0.5-2.8-0.8
			c-0.3-0.1-0.5-0.1-0.8-0.2c-1.1-0.3-2.8-0.9-4.8-1.6c-3.8-1.4-7.3-3-10.6-4.9c-0.5-0.3-1-0.6-1.5-0.9c-0.3-0.2-0.7-0.4-1.1-0.7
			c-7.3-4.4-12.7-9.3-16.4-13.5c-0.3-0.3-0.6-0.7-0.9-1c0,0-0.1-0.1-0.1-0.2c-3.4-3.9-6.2-7.8-8.3-11.4
			C719.6,412.5,719.6,412.5,719.5,412.4L719.5,412.4z"/>
	</defs>
	<clipPath id="SVGID_00000146476289302012075160000004195497735426950309_">
		<use xlink:href="#SVGID_00000114041522993892811040000009615120829567463045_"  style="overflow:visible;"/>
	</clipPath>
	<g style="clip-path:url(#SVGID_00000146476289302012075160000004195497735426950309_);">
		<g>
			
				<radialGradient id="SVGID_00000098935254715826345500000017437426959996651436_" cx="13770.9355" cy="-4882.356" r="172.84" gradientTransform="matrix(-0.4565 -0.1482 0.1482 -0.4565 7717.6313 192.6294)" gradientUnits="userSpaceOnUse">
				<stop  offset="0.34" style="stop-color:#E1C2FF"/>
				<stop  offset="0.7" style="stop-color:#E2C3FF"/>
				<stop  offset="0.83" style="stop-color:#E6CAFF"/>
				<stop  offset="0.92" style="stop-color:#EED6FF"/>
				<stop  offset="0.97" style="stop-color:#F5E1FF"/>
			</radialGradient>
			<path style="fill:url(#SVGID_00000098935254715826345500000017437426959996651436_);" d="M719.5,412.4c-0.3-0.5-0.6-1-0.9-1.6
				c-2.7-4.7-5.3-10.6-7.1-17.5l0,0c-1-3.4-2-8-2.4-13.7c-0.1-1.4-0.2-3-0.2-4.5c0-0.4,0-0.8,0-1.1c0-0.1,0-0.3,0-0.4
				c0-0.4,0-0.8,0-1.2c0-2.2,0.1-4.3,0.3-6.3c0.1-0.6,0.1-1.3,0.2-2c0-0.1,0-0.2,0-0.2c0.1-0.5,0.1-0.9,0.2-1.4
				c0.5-3.7,1.3-7.1,2.2-10.2c0.2-0.6,0.3-1.2,0.5-1.8c0.1-0.3,0.2-0.5,0.2-0.8c0.1-0.2,0.2-0.5,0.2-0.7c0-0.1,0.1-0.2,0.1-0.3
				s0.1-0.2,0.1-0.3c0.1-0.2,0.2-0.4,0.2-0.6c1.4-3.9,2.7-6.7,3.9-9.1c0-0.1,0.1-0.1,0.1-0.2c0,0,0,0.1,0,0.1
				c0.1-0.2,0.2-0.5,0.4-0.7c0.5-1,1.1-2,1.7-3.1c0.3-0.6,0.7-1.2,1-1.7c0.8-1.4,2-3.2,3-4.5c0,0,0,0,0,0c0.5-0.6,0.9-1.3,1.4-1.9
				c0,0,0,0,0,0c0,0,0,0,0,0c0.3-0.4,0.5-0.7,0.8-1c0.4-0.5,0.7-0.9,1.1-1.3c1.1-1.3,2.2-2.6,3.5-3.9c0,0,0,0,0,0c1-1,2-2.1,3.1-3.1
				c5.5-5.2,11.7-9.4,18.6-12.8c3.5-1.8,7.8-3.5,12.6-4.8l0.5-0.1l0,0l0,0l0,0c0,0,0,0,0,0c0,0,0,0,0,0c1.3-0.4,2.6-0.7,4-1
				c0.9-0.2,2-0.4,3-0.6c0,0,0,0,0.1,0c0.1,0,0.2,0,0.3,0l0,0l0,0c0,0,0,0,0,0c1.5-0.3,2.2-0.4,3.4-0.5c0.1,0,0.3,0,0.4,0l0,0
				c1.3-0.2,2.2-0.3,3.4-0.3c0.7-0.1,1.5-0.1,2.2-0.1c0,0,0.1,0,0.1,0c1,0,1.9-0.1,2.9-0.1c0,0,0.1,0,0.1,0c0.8,0,1.7,0,2.6,0
				c0.6,0,1.2,0,1.8,0.1c0.2,0,0.5,0,0.7,0c5.9,0.3,10.6,1.3,13.5,2c0.3,0.1,0.5,0.1,0.7,0.2l0,0c1.3,0.3,2.6,0.7,3.6,1
				c0.3,0.1,0.7,0.2,1,0.3c0,0,0.1,0,0.1,0l0.1,0c1.7,0.5,3.7,1.2,6.3,2.3c12.2,5,22.7,13,30.7,23.4c0.2,0.3,0.5,0.6,0.7,0.9
				c0,0,0.1,0.1,0.1,0.1c1.2,1.6,2.4,3.3,3.3,4.8c0.1,0.1,0.1,0.2,0.2,0.3c0.7,1.2,1.5,2.5,2.3,3.8c0.1,0.2,0.3,0.4,0.4,0.6l0.3,0.7
				c0.2,0.5,0.5,0.9,0.7,1.4c0.6,1.1,1.1,2.2,1.6,3.3c0.4,0.9,0.8,1.8,1.1,2.7c0,0.1,0.1,0.2,0.1,0.3c0.1,0.3,0.2,0.6,0.4,0.9
				c0.2,0.5,0.4,1,0.5,1.4c0,0,0,0.1,0,0.1c0,0,0,0.1,0,0.1c4.5,12.2,5.7,25.1,3.6,37.9c0,0.3-0.1,0.6-0.2,1c0,0.1,0,0.3-0.1,0.4
				c-0.1,0.5-0.2,0.9-0.3,1.4c-2,10.2-5.9,19.4-11,27.1c-8.6,13.5-20.2,22.8-32.6,27.9c0,0,0,0,0,0c-0.1,0-0.2,0.1-0.3,0.1
				c-0.6,0.3-1.2,0.5-1.8,0.8c-0.2,0.1-0.5,0.2-0.7,0.3c-0.3,0.1-0.6,0.3-0.9,0.4l0,0l0,0c0,0,0,0,0,0l0,0l0,0
				c-0.4,0.1-0.7,0.3-1.1,0.4c0,0,0,0,0,0c-1.4,0.5-2.4,0.8-2.5,0.9l0,0l0,0c-1.2,0.4-2,0.7-3.4,1c-0.1,0-0.2,0-0.2,0.1l0,0l0,0l0,0
				l0,0c-0.1,0-0.2,0-0.3,0.1c-0.1,0-0.2,0-0.3,0.1c-0.5,0.1-1.1,0.3-1.7,0.4l-0.3,0.1l-1,0.2c0,0,0,0-0.1,0h0
				c-1,0.3-2.3,0.5-3.4,0.7c0,0,0,0,0,0c-0.1,0-0.2,0-0.3,0c-0.2,0-0.4,0.1-0.6,0.1c0,0-0.1,0-0.2,0c-1.1,0.2-1.8,0.3-2.8,0.4
				c-0.1,0-0.2,0-0.3,0c0,0,0,0-0.1,0c-0.7,0.1-1.4,0.2-2.2,0.2c-0.3,0-0.6,0-0.9,0.1c-0.3,0-0.7,0.1-1,0.1c-0.4,0-0.8,0-1.2,0.1
				c-1.5,0.1-2.9,0.1-4.3,0.1c0,0-0.1,0-0.1,0c-7.8,0-14-1.2-17.5-2.1c-0.3-0.1-0.5-0.1-0.7-0.2c-0.9-0.2-1.8-0.5-2.8-0.8
				c-0.3-0.1-0.5-0.1-0.8-0.2c-1.1-0.3-2.8-0.9-4.8-1.6c-3.8-1.4-7.3-3-10.6-4.9c-0.5-0.3-1-0.6-1.5-0.9c-0.3-0.2-0.7-0.4-1.1-0.7
				c-7.3-4.4-12.7-9.3-16.4-13.5c-0.3-0.3-0.6-0.7-0.9-1c0,0-0.1-0.1-0.1-0.2c-3.4-3.9-6.2-7.8-8.3-11.4
				C719.6,412.5,719.6,412.5,719.5,412.4L719.5,412.4z"/>
			
				<linearGradient id="SVGID_00000074441337008800495720000009142517201191721619_" gradientUnits="userSpaceOnUse" x1="754.2484" y1="739.4728" x2="831.3283" y2="511.3828" gradientTransform="matrix(1 0 0 -1 0 1024)">
				<stop  offset="0" style="stop-color:#FFFFFF"/>
				<stop  offset="1" style="stop-color:#FFFFFF;stop-opacity:0"/>
			</linearGradient>
			<path style="opacity:0.3;fill:url(#SVGID_00000074441337008800495720000009142517201191721619_);enable-background:new    ;" d="
				M885.5,437.5c-0.3,0.7-0.5,1.3-0.8,2c-0.1,0.1-0.1,0.3-0.2,0.4c-0.8,1.8-1.7,3.7-2.7,5.6c-0.1,0.3-0.3,0.6-0.4,0.9l-0.5,1
				c-0.3,0.7-0.7,1.3-1,2c-0.8,1.6-1.7,3.1-2.5,4.4c-0.7,1.2-1.5,2.3-2.2,3.4c-0.1,0.1-0.2,0.2-0.2,0.4c-0.3,0.4-0.5,0.8-0.8,1.1
				c-0.4,0.6-0.8,1.2-1.2,1.8c0,0-0.1,0.1-0.1,0.1c0,0-0.1,0.1-0.1,0.1c-7.1,10-15.8,18.5-25.7,25.3c-47.3-46.6-104.7-83-167.1-106
				c0.4-2.4,0.9-4.6,1.4-6.7c0.2-0.6,0.3-1.2,0.5-1.8c0-0.1,0-0.2,0.1-0.3c1.8-7,4.1-13.2,6.6-18.6c0-0.1,0.1-0.2,0.1-0.3
				c0.4-0.8,0.7-1.5,1.1-2.3c3.4-6.8,8-14.4,14.7-22.1l0,0c3.1-3.8,7.7-8.6,13.9-13.6c1.5-1.2,3.2-2.6,5-3.8
				c0.4-0.3,0.9-0.6,1.3-0.9c0.2-0.1,0.3-0.2,0.5-0.3c0.5-0.3,1-0.7,1.5-1c0.2-0.2,0.5-0.3,0.7-0.5c4.6,16.9,12.6,32.7,23.9,46.1
				c26,30.7,64.8,46.5,100.8,64.5C863.3,424.1,874.8,430.4,885.5,437.5L885.5,437.5z M778.2,290.8c-1.8,0.1-3.5,0.2-5,0.4
				c-0.3,0-0.7,0.1-1.1,0.1c0,0,0.1,0,0.1,0c-0.1,0-0.2,0-0.3,0c-3.6,0.5-8,1.2-13.5,2.6c-0.3,0.1-0.6,0.1-0.9,0.2
				c-0.2,0-0.3,0.1-0.5,0.1c-0.2,0-0.3,0.1-0.4,0.1c-0.3,0.1-0.7,0.2-1,0.3c-0.3,0.1-0.7,0.2-1,0.3c-0.1,0-0.1,0-0.2,0.1
				c16.6,30.6,42.8,56.1,74.5,70.5c19.5,8.9,41.1,13.8,62.4,11.9c-0.1-0.4-0.2-0.9-0.3-1.3c-0.8-3.9-1.6-6.8-2.3-9.1l0-0.1
				c0,0,0-0.1,0-0.1c-0.2-0.5-0.3-1-0.4-1.4c-0.4-1.4-1-3.1-1.7-4.9l0,0c-0.1-0.2-0.2-0.5-0.3-0.9c-1.4-4-4-10.1-8.4-17.2
				c-0.2-0.3-0.3-0.5-0.5-0.8c-0.4-0.7-0.9-1.4-1.3-2.1c-0.7-1-1.3-2-2-3c0,0-0.1-0.1-0.1-0.1c-0.8-1.1-1.6-2.2-2.4-3.3
				c0,0-0.1-0.1-0.1-0.1c-0.6-0.8-1.3-1.7-1.9-2.5c-1-1.3-1.8-2.3-3-3.6l0,0c-0.1-0.1-0.2-0.3-0.4-0.4c-1.1-1.2-1.8-2-3.3-3.5
				c0,0,0,0,0,0l0,0l0,0c-0.1-0.1-0.2-0.2-0.3-0.3c0,0,0,0-0.1-0.1c-0.9-1-2.1-2.1-3.1-3c-1.5-1.4-2.9-2.6-4.3-3.8c0,0,0,0,0,0
				c0,0,0,0,0,0l0,0l0,0l-0.6-0.5c-5.3-4.5-10.7-8.1-15.5-10.7c-9.3-5.3-19.1-9.1-29.4-11.4c-2-0.5-4-0.9-6-1.2c0,0,0,0-0.1,0
				c-2.5-0.4-4.9-0.7-7.3-0.9c-0.8-0.1-1.5-0.1-2.3-0.2c-0.6,0-1.2-0.1-1.8-0.1c0,0-0.1,0-0.1,0c0,0,0,0,0,0c-1-0.1-2.1-0.1-3.2-0.1
				c0,0,0,0-0.1,0c-2.3-0.1-5.3,0-7.5,0.1C780.1,290.7,779.2,290.7,778.2,290.8L778.2,290.8z"/>
			<g class="st7">
				
					<image style="overflow:visible;enable-background:new    ;" width="191" height="176" xlink:href="50A7DE56.png"  transform="matrix(1 0 0 1 679.5 321)">
				</image>
			</g>
			<g>
				
					<image style="overflow:visible;enable-background:new    ;" width="155" height="147" xlink:href="50A7DE49.png"  transform="matrix(1 0 0 1 739.5 257)">
				</image>
				<g>
					
						<image style="overflow:visible;enable-background:new    ;" width="110" height="119" xlink:href="50A7DE48.png"  transform="matrix(1 0 0 1 686.5 280)">
					</image>
				</g>
			</g>
		</g>
	</g>
</g>
<g id="turn-RingPlanetLeft_00000031892460512329094520000003153821825145047986_" style="clip-path:url(#SVGID_00000152228125036666195980000015387077965750323871_);">
	<g>
		<defs>
			<circle id="SVGID_00000032606771470184070360000006097033172340874663_" cx="354.6" cy="642.7" r="219.8"/>
		</defs>
		<clipPath id="SVGID_00000148644486561682255420000015239247960046387105_">
			<use xlink:href="#SVGID_00000032606771470184070360000006097033172340874663_"  style="overflow:visible;"/>
		</clipPath>
		<g style="clip-path:url(#SVGID_00000148644486561682255420000015239247960046387105_);">
			
				<linearGradient id="SVGID_00000174561049552784365840000016207537080247296653_" gradientUnits="userSpaceOnUse" x1="354.62" y1="603.97" x2="354.62" y2="56.1599" gradientTransform="matrix(1 0 0 -1 0 1024)">
				<stop  offset="0" style="stop-color:#7155F5"/>
				<stop  offset="0.15" style="stop-color:#6C50E8"/>
				<stop  offset="0.42" style="stop-color:#6043C8"/>
				<stop  offset="0.79" style="stop-color:#4E2F95"/>
				<stop  offset="0.97" style="stop-color:#442479"/>
			</linearGradient>
			<circle style="fill:url(#SVGID_00000174561049552784365840000016207537080247296653_);" cx="354.6" cy="642.7" r="219.8"/>
			
				<linearGradient id="SVGID_00000000941909140185338070000007729276557400106388_" gradientUnits="userSpaceOnUse" x1="250.5868" y1="552.3441" x2="423.5068" y2="268.1041" gradientTransform="matrix(1 0 0 -1 0 1024)">
				<stop  offset="0" style="stop-color:#AC6EFC"/>
				<stop  offset="0.66" style="stop-color:#785EF7"/>
				<stop  offset="0.98" style="stop-color:#7155F5"/>
			</linearGradient>
			<path style="opacity:0.3;fill:url(#SVGID_00000000941909140185338070000007729276557400106388_);enable-background:new    ;" d="
				M488.9,513.7c15.8,1.8,31.7,3.5,47.6,5.5c8.5,12.5,15.8,25.9,21.6,40.1c-49.2-2.3-98.5-3.2-145.8-16.6c-32-9-62-23.5-91.1-39.3
				c-12.6-6.9-28.1-13.2-39.2-22.4c-5.5-4.5-18.1-20.8-2.5-20.3c17.1,0.5,31.9,11.1,47.2,17.5c17,7.1,34.5,12.6,52.4,17.2
				C415,504.5,452,509.5,488.9,513.7L488.9,513.7z M377.5,575c-55.9-26.2-94-79.2-143.6-116c-7.8,5.2-15.3,10.8-22.4,16.9
				c18.5,10.6,36.1,22.9,52.4,36.6c52.1,43.9,91.7,102.5,149.2,139c41.1,26.1,89,39.2,136.3,50.5c5.3,1.2,10.6,2.5,15.9,3.6
				c5.9-19.9,9.2-41,9.2-62.9c0-12.8-1.1-25.3-3.2-37.4c-16.5-1.7-32.9-3.2-49.4-4.4C472.8,597.3,422,595.9,377.5,575L377.5,575z
				 M437.1,749.9c-22.5-7.8-45.5-15.8-63.6-31.2c-23.7-20-36.4-49.9-57.3-72.8c-28.3-31-69.2-46.6-105.9-66.8
				c-18.2-10-36.4-22.5-50.9-37.5c-15.7,30.2-24.5,64.6-24.5,101c0,13.6,1.2,26.8,3.6,39.7c34.1,21.2,65,48.4,96.6,73.6
				c51.7,41.2,109.9,78.6,171.8,100.3c47.7-11.6,89.2-38.7,119.1-75.7C496.3,770.3,466.7,760.1,437.1,749.9L437.1,749.9z
				 M184.6,753.5c-8.2-3.4-16.5-6.5-24.9-9.3c14.1,27.1,33.7,50.8,57.3,69.8c4.5-17.1,2.7-35.2-9.6-47.2
				C201.1,760.6,192.8,756.9,184.6,753.5z M289.4,432.7c35.1,23.6,77.2,36.8,119.6,37.3c24.8,0.3,49.5-3.6,74.2-5.7
				c-36.1-26.1-80.5-41.5-128.5-41.5C331.9,422.8,310,426.3,289.4,432.7L289.4,432.7z"/>
			<g class="st7">
				
					<image style="overflow:visible;enable-background:new    ;" width="455" height="456" xlink:href="50A7DE4E.png"  transform="matrix(1 0 0 1 162.5 446)">
				</image>
			</g>
			<g class="st7">
				
					<image style="overflow:visible;enable-background:new    ;" width="500" height="500" xlink:href="50A7DE44.png"  transform="matrix(1 0 0 1 88.5 377)">
				</image>
			</g>
		</g>
	</g>
	<path class="st9" d="M574.1,649.6c0,1.5-0.1,3-0.2,4.5c54.4,39.9,83.6,78.4,73.4,104.3c-19,47.9-165.7,35-327.1-28.8
		C158.9,665.7,42.9,574.9,61.9,527C69.6,507.5,98.5,498,141,498c13.9,0,29.2,1.1,45.7,3c1-1.1,1.9-2.3,2.9-3.5
		c-70.4-8.6-120.8,0.2-131.7,27.8c-19.8,50,97.2,143.4,260.8,208c95.4,37.7,185.9,57.5,248.7,57.5c44.9,0,75.6-10.1,83.9-31
		C662.2,732.3,631.4,691.5,574.1,649.6L574.1,649.6z"/>
	<path class="st9" d="M314.1,698.1c0,0-31.6,2.4-47.5,17.9c-17.5,17.1-17.9,74.9-17.9,74.9s-0.4-57.9-17.9-74.9
		c-15.8-15.5-47.4-17.9-47.4-17.9s31.6-2.4,47.4-17.9c17.5-17.1,17.9-74.9,17.9-74.9s0.4,57.9,17.9,74.9
		C282.5,695.6,314.1,698.1,314.1,698.1z"/>
	<path class="st9" d="M339.3,406.3c0,0-12.2,0.9-18.3,6.9c-6.8,6.6-6.9,29-6.9,29s-0.2-22.4-6.9-29c-6.1-6-18.3-6.9-18.3-6.9
		s12.2-0.9,18.3-6.9c6.8-6.6,6.9-29,6.9-29s0.2,22.4,6.9,29C327.1,405.4,339.3,406.3,339.3,406.3z"/>
	<path class="st9" d="M616.6,748.7c0,0-6.5,0.5-9.7,3.7c-3.6,3.5-3.7,15.4-3.7,15.4s-0.1-11.9-3.7-15.4c-3.2-3.2-9.7-3.7-9.7-3.7
		s6.5-0.5,9.7-3.7c3.6-3.5,3.7-15.4,3.7-15.4s0.1,11.9,3.7,15.4C610.1,748.2,616.6,748.7,616.6,748.7z"/>
</g>
<g id="background-dust05" style="clip-path:url(#SVGID_00000152228125036666195980000015387077965750323871_);">
	<path class="st9" d="M436.2,75.4c0.6,2-0.4,4.1-2.4,4.7c-1.9,0.6-4-0.5-4.7-2.4c-0.6-2,0.4-4.1,2.4-4.7
		C433.5,72.4,435.6,73.5,436.2,75.4z"/>
	<path class="st9" d="M465.4,93.6c0.3,0.8-0.2,1.6-0.9,1.9c-0.8,0.2-1.6-0.2-1.9-1c-0.3-0.8,0.2-1.6,0.9-1.9
		C464.3,92.4,465.1,92.8,465.4,93.6z"/>
	<path class="st9" d="M420.6,619.4c0.5,1.6-0.3,3.4-2,3.9c-1.6,0.5-3.4-0.4-3.9-2c-0.5-1.7,0.3-3.4,2-3.9
		C418.3,616.8,420.1,617.7,420.6,619.4z"/>
	<path class="st9" d="M1049.5,1011.6c-0.8,0.7-2.1,0.7-2.8-0.2c-0.7-0.8-0.6-2.1,0.2-2.8c0.8-0.7,2.1-0.7,2.8,0.2
		C1050.5,1009.6,1050.4,1010.8,1049.5,1011.6z"/>
	<path class="st9" d="M723.5,99.4c0.5,1.7-0.4,3.5-2,4c-1.7,0.5-3.4-0.4-4-2.1c-0.5-1.7,0.4-3.5,2-4
		C721.2,96.8,722.9,97.7,723.5,99.4z"/>
	<path class="st9" d="M326,545.8c0.5,1.5-0.3,3.2-1.8,3.7c-1.5,0.5-3.2-0.4-3.7-1.9c-0.5-1.5,0.3-3.2,1.8-3.7
		C323.9,543.4,325.5,544.3,326,545.8z"/>
	<path class="st9" d="M1125.9,663.9c0.5,1.5-0.3,3.1-1.8,3.6s-3-0.4-3.5-1.8s0.3-3.1,1.8-3.6S1125.5,662.4,1125.9,663.9z"/>
	<path class="st9" d="M1164.3,746.2c0.2,0.6-0.1,1.2-0.7,1.4c-0.6,0.2-1.2-0.1-1.4-0.7s0.1-1.2,0.7-1.4
		C1163.4,745.2,1164.1,745.6,1164.3,746.2z"/>
	
		<ellipse transform="matrix(0.9516 -0.3075 0.3075 0.9516 -152.8043 388.9745)" class="st9" cx="1158" cy="679.4" rx="1.8" ry="1.8"/>
	<path class="st9" d="M1108.7,737.5c0.3,0.8-0.2,1.8-1,2c-0.8,0.3-1.7-0.2-2-1.1c-0.3-0.9,0.2-1.8,1-2
		C1107.5,736.2,1108.4,736.7,1108.7,737.5z"/>
	
		<ellipse transform="matrix(0.9516 -0.3075 0.3075 0.9516 -164.8057 395.0528)" class="st9" cx="1171.3" cy="720.5" rx="2.4" ry="2.4"/>
	
		<ellipse transform="matrix(0.9516 -0.3075 0.3075 0.9516 -89.8542 160.2509)" class="st9" cx="463.6" cy="365.3" rx="3.3" ry="3.3"/>
	<path class="st9" d="M240.6,324.7c0.7,2-0.4,4.2-2.4,4.8s-4.1-0.5-4.8-2.5s0.4-4.2,2.4-4.8S239.9,322.6,240.6,324.7z"/>
	<path class="st9" d="M997.8,859.3c-1.6,1.4-3.9,1.2-5.3-0.3c-1.3-1.5-1.2-3.9,0.4-5.3s3.9-1.2,5.3,0.3
		C999.5,855.6,999.4,857.9,997.8,859.3z"/>
	<path class="st9" d="M806.7,80.3c0.3,0.8-0.2,1.6-0.9,1.9c-0.8,0.2-1.6-0.2-1.9-1c-0.3-0.8,0.2-1.6,0.9-1.9
		C805.6,79.1,806.5,79.5,806.7,80.3z"/>
	
		<ellipse transform="matrix(0.9516 -0.3075 0.3075 0.9516 -35.9678 142.8703)" class="st9" cx="435.4" cy="185.6" rx="3.8" ry="3.9"/>
	<path class="st9" d="M753.9,853.9c0.6,1.9-0.4,3.8-2.2,4.4c-1.8,0.6-3.8-0.4-4.4-2.3c-0.6-1.9,0.4-3.8,2.2-4.4
		C751.4,851,753.3,852,753.9,853.9z"/>
	<path class="st9" d="M336.9,181.1c0.5,1.7-0.4,3.5-2,4c-1.6,0.5-3.4-0.4-4-2.1c-0.5-1.7,0.4-3.5,2-4
		C334.6,178.4,336.4,179.4,336.9,181.1z"/>
	<path class="st9" d="M973.3,604c-1.6,1.4-3.9,1.2-5.3-0.3c-1.3-1.5-1.2-3.9,0.4-5.3c1.6-1.4,3.9-1.2,5.3,0.3
		C975,600.3,974.9,602.7,973.3,604z"/>
	<path class="st9" d="M968.3,638c-0.6,0.5-1.6,0.5-2.1-0.1c-0.5-0.6-0.5-1.5,0.2-2.1c0.6-0.5,1.6-0.5,2.1,0.1
		C969,636.5,968.9,637.5,968.3,638z"/>
	<path class="st9" d="M902,532.7c-1,0.9-2.5,0.8-3.4-0.2c-0.9-1-0.8-2.5,0.2-3.4c1-0.9,2.5-0.8,3.4,0.2
		C903.1,530.3,903,531.8,902,532.7z"/>
	
		<ellipse transform="matrix(0.7503 -0.6611 0.6611 0.7503 -210.1257 738.0161)" class="st9" cx="872" cy="647.2" rx="3.9" ry="3.8"/>
	<path class="st9" d="M836.9,555.1c-1.3,1.2-3.3,1.1-4.5-0.2c-1.1-1.3-1-3.3,0.3-4.5c1.3-1.2,3.3-1.1,4.5,0.2
		S838.2,553.9,836.9,555.1z"/>
</g>
<g id="background-dust04" style="clip-path:url(#SVGID_00000152228125036666195980000015387077965750323871_);">
	<path class="st9" d="M1216.9,406.3c-0.2,0.9-1.2,1.5-2.1,1.3c-0.9-0.2-1.5-1.2-1.3-2.1c0.2-0.9,1.2-1.5,2.1-1.3
		C1216.6,404.4,1217.1,405.4,1216.9,406.3z"/>
	<path class="st9" d="M1290.3,396.1c-0.4,1.5-1.9,2.5-3.5,2.1c-1.5-0.4-2.5-1.9-2.1-3.5c0.4-1.5,1.9-2.5,3.5-2.1
		C1289.8,393,1290.7,394.5,1290.3,396.1z"/>
	<circle class="st9" cx="1438.1" cy="422.2" r="1.5"/>
	<path class="st9" d="M1505.1,449.8c-0.3,1.3-1.6,2.1-2.9,1.7c-1.3-0.3-2.1-1.6-1.7-2.9c0.3-1.3,1.6-2.1,2.9-1.7
		C1504.7,447.2,1505.4,448.5,1505.1,449.8z"/>
	<path class="st9" d="M1870.7,272.4c-0.3,1.3-1.6,2.1-2.9,1.7c-1.3-0.3-2.1-1.6-1.7-2.9c0.3-1.3,1.6-2.1,2.9-1.7
		C1870.3,269.9,1871.1,271.2,1870.7,272.4z"/>
	<path class="st9" d="M1582.8,376.8c-0.4,1.7-2.1,2.7-3.8,2.3c-1.7-0.4-2.7-2.1-2.3-3.8c0.4-1.7,2.1-2.7,3.8-2.3
		C1582.2,373.4,1583.2,375.1,1582.8,376.8z"/>
	<path class="st9" d="M1430,665.8c-0.4,1.8-2.3,2.9-4.1,2.4c-1.8-0.4-2.9-2.3-2.4-4.1s2.3-2.9,4.1-2.4
		C1429.4,662.2,1430.5,664,1430,665.8z"/>
	<path class="st9" d="M1751.5,625.7c-0.4,1.8-2.3,2.9-4.1,2.4c-1.8-0.4-2.9-2.3-2.4-4.1c0.4-1.8,2.3-2.9,4.1-2.4
		C1750.9,622.1,1752,623.9,1751.5,625.7z"/>
	<path class="st9" d="M1738.8,732c-0.2,0.7-0.9,1.1-1.6,1c-0.7-0.2-1.1-0.9-1-1.6c0.2-0.7,0.9-1.1,1.6-1S1739,731.3,1738.8,732z"/>
	
		<ellipse transform="matrix(0.242 -0.9703 0.9703 0.242 703.3437 2223.0725)" class="st9" cx="1774.5" cy="661.4" rx="2.2" ry="2.2"/>
	<path class="st9" d="M1527.9,665c-0.4,1.7-2.1,2.7-3.8,2.3c-1.7-0.4-2.7-2.1-2.3-3.8c0.4-1.7,2.1-2.7,3.8-2.3
		C1527.3,661.7,1528.3,663.4,1527.9,665z"/>
	<circle class="st9" cx="1618.9" cy="676.9" r="4.3"/>
	<path class="st9" d="M1687.4,688.5c-0.3,1-1.3,1.6-2.3,1.4s-1.6-1.3-1.4-2.3c0.3-1,1.3-1.6,2.3-1.4S1687.7,687.5,1687.4,688.5z"/>
	<path class="st9" d="M1601.8,655.7c-0.4,1.4-1.8,2.3-3.2,1.9c-1.4-0.4-2.3-1.8-1.9-3.2c0.4-1.4,1.8-2.3,3.2-1.9
		C1601.3,652.8,1602.2,654.3,1601.8,655.7z"/>
	
		<ellipse transform="matrix(0.242 -0.9703 0.9703 0.242 645.9653 2248.6069)" class="st9" cx="1762.2" cy="710.9" rx="2.8" ry="2.8"/>
	<circle class="st9" cx="1318.1" cy="455.6" r="3.9"/>
	<circle class="st9" cx="910.6" cy="286" r="4.2"/>
	<circle class="st9" cx="969.8" cy="341.2" r="2.5"/>
	<path class="st9" d="M918.8,253.5c-0.5,2-2.5,3.2-4.6,2.7s-3.2-2.5-2.7-4.6c0.5-2,2.5-3.2,4.6-2.7S919.3,251.5,918.8,253.5z"/>
	<path class="st9" d="M1687.3,42.4c-0.6,2.4-3,3.8-5.4,3.2c-2.4-0.6-3.8-3-3.2-5.4s3-3.8,5.4-3.2
		C1686.4,37.7,1687.9,40.1,1687.3,42.4z"/>
	<path class="st9" d="M1658.3,293c-0.2,0.9-1.2,1.5-2.1,1.3s-1.5-1.2-1.3-2.1c0.2-0.9,1.2-1.5,2.1-1.3
		C1657.9,291.1,1658.5,292,1658.3,293z"/>
	<path class="st9" d="M1752.8,262.3c-0.4,1.5-1.9,2.5-3.5,2.1c-1.5-0.4-2.5-1.9-2.1-3.5s1.9-2.5,3.5-2.1
		C1752.2,259.2,1753.2,260.7,1752.8,262.3z"/>
	<path class="st9" d="M1251.1,581.6c-0.6,2.2-2.8,3.6-5,3c-2.2-0.6-3.6-2.8-3-5c0.6-2.2,2.8-3.6,5-3
		C1250.3,577.1,1251.7,579.4,1251.1,581.6z"/>
	<path class="st9" d="M1241.5,461.2c-0.5,2-2.5,3.2-4.6,2.7c-2-0.5-3.2-2.5-2.7-4.6c0.5-2,2.5-3.2,4.6-2.7
		C1240.8,457.2,1242,459.2,1241.5,461.2z"/>
</g>
<g id="turn-RingPlanetLeft_00000024683896539367896040000006417789551244596668_" style="clip-path:url(#SVGID_00000152228125036666195980000015387077965750323871_);">
	<g>
		<g>
			<defs>
				<path id="SVGID_00000076561510396012612860000016010710135607849348_" d="M1400.1,453.5c-0.1-2.4-0.2-4.8-0.3-7.2
					c-0.8-21.5,0.7-46.8,6.8-74.8v0c2.7-13.7,7.6-31.7,16.5-52.6c2.1-5.1,4.7-10.8,7.4-16.3c0.7-1.4,1.3-2.7,2-4
					c0.3-0.5,0.5-1,0.8-1.5c0.8-1.5,1.5-3,2.3-4.4c4.1-7.6,8.3-14.8,12.6-21.5c1.4-2.2,2.8-4.4,4.3-6.5c0.2-0.3,0.4-0.5,0.6-0.8
					c1-1.5,2.1-3,3.1-4.5c8.6-12.2,17.6-22.7,26.4-31.9c1.7-1.8,3.4-3.5,5.1-5.2c0.8-0.8,1.5-1.5,2.2-2.2c0.7-0.7,1.4-1.4,2.1-2.1
					c0.3-0.3,0.6-0.6,0.9-0.9c0.3-0.3,0.7-0.7,1-1c0.6-0.6,1.3-1.2,1.9-1.8c11.9-11.1,21.8-18.8,30.2-24.8c0.2-0.2,0.5-0.4,0.7-0.5
					c-0.1,0.1-0.2,0.2-0.3,0.2c0.8-0.6,1.7-1.2,2.5-1.8c3.4-2.5,7.6-5.2,11.8-7.8c2.3-1.5,4.5-2.9,6.6-4.2
					c5.5-3.3,12.9-7.5,18.7-10.3c0.1,0,0.1-0.1,0.2-0.1c2.8-1.4,5.5-2.8,8.2-4c0,0,0.1,0,0.1-0.1c0.1,0,0.2-0.1,0.2-0.1
					c1.6-0.8,3.2-1.5,4.7-2.2c2.1-0.9,4.1-1.8,6.2-2.6c6.2-2.7,12.6-5.2,19.4-7.5c0.1,0,0.1,0,0.2-0.1c5.3-1.8,10.8-3.6,16.6-5.2
					c28.8-8.2,58.4-11.9,88.6-11.1c15.6,0.1,33.7,2,53,5.9l2.2,0.4l0,0l0,0l0,0l0,0c0,0,0.1,0,0.1,0c0.1,0,0.1,0,0.2,0
					c5.2,1.1,10.4,2.3,16,3.8c3.7,0.9,8,2.2,11.6,3.4c0.1,0,0.2,0.1,0.2,0.1c0.4,0.1,0.8,0.2,1.1,0.4h0h0c0,0,0,0,0.1,0
					c6,1.9,8.6,2.8,13,4.4c0.5,0.2,1,0.4,1.5,0.5c0,0,0,0,0,0c4.8,1.8,8.2,3.1,12.5,4.9c2.7,1.1,5.4,2.3,8.2,3.6
					c0.2,0.1,0.3,0.1,0.5,0.2c3.5,1.6,6.9,3.2,10.4,5c0.1,0.1,0.3,0.1,0.4,0.2c3,1.5,6,3.1,9,4.7c2.1,1.2,4.1,2.3,6.1,3.5
					c0.8,0.4,1.6,0.9,2.3,1.3c20.3,12,35.1,23.8,44,31.8c0.9,0.8,1.6,1.4,2,1.8c0,0,0,0,0,0c4.1,3.6,7.9,7.1,10.8,10
					c0.9,0.9,1.9,1.9,3,2.9c0.1,0.1,0.2,0.2,0.2,0.2l0.2,0.2c4.9,4.9,10.8,11,18,19.7c33.9,40,56.1,87.1,65.4,138.2
					c0.3,1.5,0.6,2.9,0.8,4.4c0,0.2,0.1,0.4,0.1,0.6c1.4,7.9,2.5,16,3,22.9c0,0.4,0.1,0.9,0.1,1.3c0.5,5.5,0.8,11.5,1,17.7
					c0.1,1,0.1,2,0.2,2.9l-0.1,3.1c0,2.1,0.1,4.2,0,6.3c0,5-0.1,9.9-0.4,14.3c-0.2,4-0.6,7.8-0.9,11.5c0,0.4-0.1,0.9-0.1,1.3
					c-0.1,1.3-0.2,2.6-0.4,3.9c-0.2,2.1-0.5,4.1-0.7,6.1c0,0.1,0,0.3-0.1,0.4c0,0.2,0,0.4-0.1,0.5c-6.4,51-25.6,98.6-56.3,139.8
					c-0.8,1.1-1.6,2.1-2.3,3.2c-0.4,0.5-0.7,0.9-1.1,1.4c-1.2,1.5-2.3,2.9-3.4,4.3c-25.6,32.5-56.2,57.4-88.3,75.5
					c-55,31.8-112.8,43.6-165.6,39c-0.1,0-0.1,0-0.2,0c-0.5,0-1,0-1.4-0.1c-2.5-0.1-5-0.3-7.7-0.6c-1-0.1-2-0.2-3-0.3
					c-1.4-0.1-2.7-0.3-4-0.4h0h0c0,0-0.1,0-0.1,0h0h0c-1.6-0.2-3.1-0.3-4.6-0.5c-0.1,0-0.1,0-0.2,0c-6.1-0.7-9.9-1.4-10.2-1.4h0l0,0
					c-5.1-0.7-8.3-1.3-13.8-2.5c-0.3-0.1-0.6-0.1-0.9-0.2h0l0,0l0,0h0c0,0,0,0,0,0c-0.4-0.1-0.8-0.2-1.2-0.3
					c-0.4-0.1-0.8-0.2-1.2-0.3c-2.2-0.5-4.4-1-6.8-1.5l-1.1-0.2l-4-1c-0.1,0-0.2,0-0.3-0.1l-0.1,0c-4-0.9-9.1-2.5-13.3-3.8
					c-0.1,0-0.1,0-0.2-0.1c-0.4-0.1-0.8-0.2-1.2-0.4c-0.8-0.2-1.5-0.5-2.2-0.7c-0.2-0.1-0.4-0.1-0.6-0.2c-4.3-1.4-6.8-2.2-10.8-3.7
					c-0.3-0.1-0.8-0.3-1.1-0.4c-0.1,0-0.1,0-0.2-0.1c-2.7-1-5.4-2-8.2-3.2c-1.1-0.5-2.2-0.9-3.2-1.4c-1.2-0.5-2.5-1-3.8-1.6
					c-1.3-0.5-2.8-1.2-4.2-1.9c-5.4-2.5-10.6-5-15.5-7.5c-0.1-0.1-0.2-0.1-0.4-0.2c-27.5-14.3-47-29.8-57.8-39.4
					c-0.9-0.8-1.6-1.5-2-1.8c-2.8-2.6-5.6-5.1-8.3-7.7c-0.8-0.8-1.6-1.5-2.5-2.3c-3.2-3-8.3-8.2-13.9-14.4
					c-10.7-11.7-20.2-24-28.3-36.5c-1.3-1.9-2.5-3.8-3.6-5.7c-0.9-1.4-1.8-2.8-2.7-4.4c-17.7-28.8-27.7-55.7-33.2-77.5
					c-0.5-1.8-0.9-3.5-1.3-5.2c-0.1-0.2-0.1-0.6-0.2-0.8c-5-19.9-7.6-38.5-8.6-55.4C1400.1,454.1,1400.1,453.8,1400.1,453.5z"/>
			</defs>
			<clipPath id="SVGID_00000129177515556051545580000017750425678772984237_">
				<use xlink:href="#SVGID_00000076561510396012612860000016010710135607849348_"  style="overflow:visible;"/>
			</clipPath>
			<g style="clip-path:url(#SVGID_00000129177515556051545580000017750425678772984237_);">
				<g>
					
						<radialGradient id="SVGID_00000123431005715380786040000001177802183007592117_" cx="9060.9297" cy="-6117.4644" r="703.9282" gradientTransform="matrix(-0.3337 -0.3381 0.3381 -0.3337 6773.6631 1493.8063)" gradientUnits="userSpaceOnUse">
						<stop  offset="0" style="stop-color:#FA87FD"/>
						<stop  offset="0.7273" style="stop-color:#FBAFFD"/>
						<stop  offset="0.9898" style="stop-color:#FCE1FD"/>
					</radialGradient>
					<path style="fill:url(#SVGID_00000123431005715380786040000001177802183007592117_);" d="M1400.1,453.5
						c-0.1-2.4-0.2-4.8-0.3-7.2c-0.8-21.5,0.7-46.8,6.8-74.8v0c2.7-13.7,7.6-31.7,16.5-52.6c2.1-5.1,4.7-10.8,7.4-16.3
						c0.7-1.4,1.3-2.7,2-4c0.3-0.5,0.5-1,0.8-1.5c0.8-1.5,1.5-3,2.3-4.4c4.1-7.6,8.3-14.8,12.6-21.5c1.4-2.2,2.8-4.4,4.3-6.5
						c0.2-0.3,0.4-0.5,0.6-0.8c1-1.5,2.1-3,3.1-4.5c8.6-12.2,17.6-22.7,26.4-31.9c1.7-1.8,3.4-3.5,5.1-5.2c0.8-0.8,1.5-1.5,2.2-2.2
						c0.7-0.7,1.4-1.4,2.1-2.1c0.3-0.3,0.6-0.6,0.9-0.9c0.3-0.3,0.7-0.7,1-1c0.6-0.6,1.3-1.2,1.9-1.8c11.9-11.1,21.8-18.8,30.2-24.8
						c0.2-0.2,0.5-0.4,0.7-0.5c-0.1,0.1-0.2,0.2-0.3,0.2c0.8-0.6,1.7-1.2,2.5-1.8c3.4-2.5,7.6-5.2,11.8-7.8c2.3-1.5,4.5-2.9,6.6-4.2
						c5.5-3.3,12.9-7.5,18.7-10.3c0.1,0,0.1-0.1,0.2-0.1c2.8-1.4,5.5-2.8,8.2-4c0,0,0.1,0,0.1-0.1c0.1,0,0.2-0.1,0.2-0.1
						c1.6-0.8,3.2-1.5,4.7-2.2c2.1-0.9,4.1-1.8,6.2-2.6c6.2-2.7,12.6-5.2,19.4-7.5c0.1,0,0.1,0,0.2-0.1c5.3-1.8,10.8-3.6,16.6-5.2
						c28.8-8.2,58.4-11.9,88.6-11.1c15.6,0.1,33.7,2,53,5.9l2.2,0.4l0,0l0,0l0,0l0,0c0,0,0.1,0,0.1,0c0.1,0,0.1,0,0.2,0
						c5.2,1.1,10.4,2.3,16,3.8c3.7,0.9,8,2.2,11.6,3.4c0.1,0,0.2,0.1,0.2,0.1c0.4,0.1,0.8,0.2,1.1,0.4h0h0c0,0,0,0,0.1,0
						c6,1.9,8.6,2.8,13,4.4c0.5,0.2,1,0.4,1.5,0.5c0,0,0,0,0,0c4.8,1.8,8.2,3.1,12.5,4.9c2.7,1.1,5.4,2.3,8.2,3.6
						c0.2,0.1,0.3,0.1,0.5,0.2c3.5,1.6,6.9,3.2,10.4,5c0.1,0.1,0.3,0.1,0.4,0.2c3,1.5,6,3.1,9,4.7c2.1,1.2,4.1,2.3,6.1,3.5
						c0.8,0.4,1.6,0.9,2.3,1.3c20.3,12,35.1,23.8,44,31.8c0.9,0.8,1.6,1.4,2,1.8c0,0,0,0,0,0c4.1,3.6,7.9,7.1,10.8,10
						c0.9,0.9,1.9,1.9,3,2.9c0.1,0.1,0.2,0.2,0.2,0.2l0.2,0.2c4.9,4.9,10.8,11,18,19.7c33.9,40,56.1,87.1,65.4,138.2
						c0.3,1.5,0.6,2.9,0.8,4.4c0,0.2,0.1,0.4,0.1,0.6c1.4,7.9,2.5,16,3,22.9c0,0.4,0.1,0.9,0.1,1.3c0.5,5.5,0.8,11.5,1,17.7
						c0.1,1,0.1,2,0.2,2.9l-0.1,3.1c0,2.1,0.1,4.2,0,6.3c0,5-0.1,9.9-0.4,14.3c-0.2,4-0.6,7.8-0.9,11.5c0,0.4-0.1,0.9-0.1,1.3
						c-0.1,1.3-0.2,2.6-0.4,3.9c-0.2,2.1-0.5,4.1-0.7,6.1c0,0.1,0,0.3-0.1,0.4c0,0.2,0,0.4-0.1,0.5c-6.4,51-25.6,98.6-56.3,139.8
						c-0.8,1.1-1.6,2.1-2.3,3.2c-0.4,0.5-0.7,0.9-1.1,1.4c-1.2,1.5-2.3,2.9-3.4,4.3c-25.6,32.5-56.2,57.4-88.3,75.5
						c-55,31.8-112.8,43.6-165.6,39c-0.1,0-0.1,0-0.2,0c-0.5,0-1,0-1.4-0.1c-2.5-0.1-5-0.3-7.7-0.6c-1-0.1-2-0.2-3-0.3
						c-1.4-0.1-2.7-0.3-4-0.4h0h0c0,0-0.1,0-0.1,0h0h0c-1.6-0.2-3.1-0.3-4.6-0.5c-0.1,0-0.1,0-0.2,0c-6.1-0.7-9.9-1.4-10.2-1.4h0
						l0,0c-5.1-0.7-8.3-1.3-13.8-2.5c-0.3-0.1-0.6-0.1-0.9-0.2h0l0,0l0,0h0c0,0,0,0,0,0c-0.4-0.1-0.8-0.2-1.2-0.3
						c-0.4-0.1-0.8-0.2-1.2-0.3c-2.2-0.5-4.4-1-6.8-1.5l-1.1-0.2l-4-1c-0.1,0-0.2,0-0.3-0.1l-0.1,0c-4-0.9-9.1-2.5-13.3-3.8
						c-0.1,0-0.1,0-0.2-0.1c-0.4-0.1-0.8-0.2-1.2-0.4c-0.8-0.2-1.5-0.5-2.2-0.7c-0.2-0.1-0.4-0.1-0.6-0.2c-4.3-1.4-6.8-2.2-10.8-3.7
						c-0.3-0.1-0.8-0.3-1.1-0.4c-0.1,0-0.1,0-0.2-0.1c-2.7-1-5.4-2-8.2-3.2c-1.1-0.5-2.2-0.9-3.2-1.4c-1.2-0.5-2.5-1-3.8-1.6
						c-1.3-0.5-2.8-1.2-4.2-1.9c-5.4-2.5-10.6-5-15.5-7.5c-0.1-0.1-0.2-0.1-0.4-0.2c-27.5-14.3-47-29.8-57.8-39.4
						c-0.9-0.8-1.6-1.5-2-1.8c-2.8-2.6-5.6-5.1-8.3-7.7c-0.8-0.8-1.6-1.5-2.5-2.3c-3.2-3-8.3-8.2-13.9-14.4
						c-10.7-11.7-20.2-24-28.3-36.5c-1.3-1.9-2.5-3.8-3.6-5.7c-0.9-1.4-1.8-2.8-2.7-4.4c-17.7-28.8-27.7-55.7-33.2-77.5
						c-0.5-1.8-0.9-3.5-1.3-5.2c-0.1-0.2-0.1-0.6-0.2-0.8c-5-19.9-7.6-38.5-8.6-55.4C1400.1,454.1,1400.1,453.8,1400.1,453.5z"/>
					<path class="st32" d="M2528.1,791.8c4.8,46-10.5,83.4-44,110.1c-16.7-16.6-31.9-33.2-46.3-49.4
						c-42.1-47.6-80.5-95.5-138.3-143.4c-67-55.6-158.4-108-247.7-143.3c-42.8-16.9-72.6-21-111.9-32.8
						c-50.9-15.3-111.9-42.2-164.3-63.3c-98.9-39.7-199.3-82.6-294.8-134.7c-105.6-57.7-199.5-123.5-288.3-191
						c6.2-5.8,13.2-11.1,20.9-15.9c95.9,65.8,194.5,132.6,302.8,190.3c109.5,58.4,217.4,75,322,104.1
						c84.5,23.5,174.2,52.6,261.1,96.8C2255,598.4,2376.3,712.5,2528.1,791.8z M1546.6,300.7c130.6,51,235.1,55.2,357.2,89.1
						c80.3,22.3,168.1,55.3,248.4,100.6c90.9,51.3,165.6,114.2,257.4,164.5c27.7,15.2,56.5,28.8,85.2,40.5
						c-14.4-26.2-33.3-53.9-57.1-83c-44.1-54-100.8-107.8-166.1-159.3c-19.4,4.2-48.6,1.1-79.6-6.1
						C2076.3,420,1944.8,345.3,1820,296.7c-111.4-43.4-215.5-65.3-323.5-97.7c-75.2-22.6-158.3-53.6-232-93.4
						c-10.2,3-19.7,6.6-28.5,10.5c4.1,3.4,8,6.9,11.9,10.3C1326.2,194.3,1438.4,258.4,1546.6,300.7z M1364.3,91.3
						c91.8,32.7,183.6,65.4,275.3,98.1c140.7,50.1,284.8,101.2,409.9,122.8c5.9,1,11.8,2,17.7,2.9
						c-181.2-105.1-387.6-185.9-566.9-213.8C1449.8,93.5,1404.4,90.3,1364.3,91.3z M1674.8,756.3c72.7,39,148.5,73.8,224.1,102.8
						c-15.8-23.8-29.9-47.4-46.2-71.3c-36.9-54-94-116.8-181.6-165.3c-60.2-33.4-124.6-54.2-185.8-73.8c-60-19.1-120-38.3-180-57.4
						c22.6,22.6,47.1,45,73.3,67c49.4,9.3,107.7,27.9,158.6,58.7C1608.2,659.8,1640.6,710.3,1674.8,756.3z M1175.6,315.9
						c8,6.8,16.1,13.6,24.6,20.2c89.4,70.4,211.5,126,325.5,176.9c176.1,78.6,352.6,157.4,528.7,227.1c36.9,14.6,74.7,29.2,110.1,49
						s68.4,46.3,73.8,65.5c7.4,26.2-37.1,28-37.5,51.2c-0.2,10.6,8.2,23.3,20.9,37.1c64.7,7.5,120,6.7,165.1-1.5
						c-28.8-26-58.6-51.9-91.4-77.1c-109-84-246.9-158.2-382.8-222.7c-89.9-42.7-180.1-81.5-269.3-125.4
						c-84.8-41.8-158.1-69.7-224-128.3c-44.6-39.6-69.5-78.3-110.1-117.9c-35.8-35-84.1-70.2-137.2-100.9
						C1149,206.9,1149.5,256.7,1175.6,315.9z"/>
					<g class="st7">
						
							<image style="overflow:visible;enable-background:new    ;" width="529" height="508" xlink:href="50A7DE45.png"  transform="matrix(1 0 0 1 1332.4392 296.5625)">
						</image>
					</g>
					<g>
						<g>
							
								<image style="overflow:visible;enable-background:new    ;" width="326" height="429" xlink:href="50A7DE46.png"  transform="matrix(1 0 0 1 1734.4392 133.5625)">
							</image>
						</g>
					</g>
				</g>
			</g>
		</g>
	</g>
	<g>
		
			<image style="overflow:visible;opacity:0.75;enable-background:new    ;" width="1510" height="763" xlink:href="50A7DE47.png"  transform="matrix(1 0 0 1 965.4392 96.5625)">
		</image>
		<g>
			<g>
				<g>
					<defs>
						<path id="SVGID_00000155145708291297126050000014224205766637905545_" d="M1304.6,580.6c30.7-29.5,65.8-53.7,102.2-76
							c0.8,3.3,1.6,6.6,2.5,10c-58.5,39.4-90.4,72.9-82.5,91.9c16.5,39.7,200.7,0.9,411.4-86.7s368.2-190.7,351.7-230.4
							c-7.9-19-54-20-123-6.4c-1.7-3-3.6-5.9-5.4-8.9c41.4-10,83.3-17.8,125.7-18.8c62.9-0.4,72.1,25.9,28.5,68.8
							c-44.2,42.2-97.6,73.8-150.6,104.1c-71.3,39.8-145.5,74.5-220.9,105.9c-75.4,31.3-152.4,59.4-230.9,81.9
							c-58.8,16.1-118.9,31.8-180,33.3C1270.3,649.9,1261.2,623.6,1304.6,580.6z M1932.1,235.4c4,4.5,7.9,9.1,11.6,13.8
							c197.9-58.8,344.1-72.4,363.4-26c27.6,66.3-214.4,229.8-540.4,365.3s-612.6,191.5-640.1,125.2
							c-19.3-46.4,93.6-140.5,274.9-239.3c-0.3-2.2-0.5-4.5-0.8-6.6c-0.4-3.6-0.7-7.4-1-11.3C1158.6,582,1003.9,706,1028.6,765.4
							c32.8,78.8,369.2,14,751.4-144.8c382.2-158.8,665.6-351.5,632.8-430.4C2388.1,130.8,2191.2,152.9,1932.1,235.4z M1175.6,688
							c24.9,60,286.6,8.3,584.4-115.4c297.8-123.8,519.1-272.8,494.1-332.8c-16.6-39.9-137.9-30.4-304.9,16.8
							c3.8,5.2,7.5,10.5,11,15.9c43.4-10.6,87.5-18.9,132.2-19.7c63.4-0.1,76.7,27.6,30.7,73.8c-44.6,43.5-98.7,75.8-152.3,106.9
							c-72.2,40.7-147.3,76.2-223.7,108.1c-76.6,31.6-154.7,59.8-234.4,82.3c-59.8,16.1-120.9,31.7-183.2,32.6
							c-63.4,0-76.7-27.7-30.6-73.8c32.1-31.2,69.2-56.7,107.4-80c-1.5-6.5-2.6-12.8-3.6-19C1251.4,568.7,1159,648,1175.6,688z"/>
					</defs>
					<clipPath id="SVGID_00000075128185789494810280000017764734065415583152_">
						<use xlink:href="#SVGID_00000155145708291297126050000014224205766637905545_"  style="overflow:visible;"/>
					</clipPath>
					<path style="clip-path:url(#SVGID_00000075128185789494810280000017764734065415583152_);fill:#FEFEFC;" d="M2087.1,255.5
						c-61.1,1.4-121.2,16.9-180.1,33c-78.6,22.3-155.6,50.2-231.2,81.5c-75.4,31.5-149.5,66.4-220.8,106.4
						c-52.9,30.4-106.3,62-150.4,104.4c-43.4,43-34.3,69.3,28.6,68.8c61.1-1.5,121.2-17.2,180-33.3c78.6-22.5,155.5-50.5,230.9-81.9
						c75.4-31.4,149.6-66.1,220.9-105.9c52.9-30.3,106.4-61.8,150.6-104.1C2159.2,281.3,2150,255,2087.1,255.5z M1738.2,519.9
						c-210.7,87.6-394.9,126.4-411.4,86.7s140.9-142.8,351.7-230.4c210.7-87.6,394.9-126.4,411.4-86.7
						C2106.3,329.2,1948.9,432.3,1738.2,519.9z M1661.4,335c-382.2,158.8-665.5,351.5-632.8,430.4c32.8,78.8,369.2,14,751.4-144.8
						c382.2-158.8,665.5-351.5,632.8-430.4C2380.1,111.3,2043.6,176.2,1661.4,335z M1766.7,588.5
						c-326,135.5-612.6,191.5-640.1,125.2c-27.6-66.3,214.4-229.8,540.4-365.3s612.6-191.5,640.1-125.2
						C2334.6,289.5,2092.7,453.1,1766.7,588.5z M1669.8,355.2C1371.9,479,1150.7,627.9,1175.6,688s286.6,8.3,584.4-115.4
						c297.8-123.8,519.1-272.8,494.1-332.8C2229.3,179.7,1967.6,231.4,1669.8,355.2z M2123.3,326.6
						c-44.6,43.5-98.7,75.8-152.3,106.9c-72.2,40.7-147.3,76.2-223.7,108.1c-76.6,31.6-154.7,59.8-234.4,82.3
						c-59.8,16.1-120.9,31.7-183.2,32.6c-63.4,0-76.7-27.7-30.6-73.8c44.7-43.4,98.8-75.6,152.5-106.5
						c72.2-40.6,147.4-75.9,223.8-107.7c76.5-31.8,154.5-60.1,234.2-82.7c59.8-16.2,120.8-31.9,183.1-32.9
						C2156,252.7,2169.2,280.5,2123.3,326.6z"/>
				</g>
				<g>
					<defs>
						<path id="SVGID_00000167380262724602796750000003270008674610096823_" d="M1304.6,580.6c30.7-29.5,65.8-53.7,102.2-76
							c0.8,3.3,1.6,6.6,2.5,10c-58.5,39.4-90.4,72.9-82.5,91.9c16.5,39.7,200.7,0.9,411.4-86.7s368.2-190.7,351.7-230.4
							c-7.9-19-54-20-123-6.4c-1.7-3-3.6-5.9-5.4-8.9c41.4-10,83.3-17.8,125.7-18.8c62.9-0.4,72.1,25.9,28.5,68.8
							c-44.2,42.2-97.6,73.8-150.6,104.1c-71.3,39.8-145.5,74.5-220.9,105.9c-75.4,31.3-152.4,59.4-230.9,81.9
							c-58.8,16.1-118.9,31.8-180,33.3C1270.3,649.9,1261.2,623.6,1304.6,580.6z M1932.1,235.4c4,4.5,7.9,9.1,11.6,13.8
							c197.9-58.8,344.1-72.4,363.4-26c27.6,66.3-214.4,229.8-540.4,365.3s-612.6,191.5-640.1,125.2
							c-19.3-46.4,93.6-140.5,274.9-239.3c-0.3-2.2-0.5-4.5-0.8-6.6c-0.4-3.6-0.7-7.4-1-11.3C1158.6,582,1003.9,706,1028.6,765.4
							c32.8,78.8,369.2,14,751.4-144.8c382.2-158.8,665.6-351.5,632.8-430.4C2388.1,130.8,2191.2,152.9,1932.1,235.4z M1175.6,688
							c24.9,60,286.6,8.3,584.4-115.4c297.8-123.8,519.1-272.8,494.1-332.8c-16.6-39.9-137.9-30.4-304.9,16.8
							c3.8,5.2,7.5,10.5,11,15.9c43.4-10.6,87.5-18.9,132.2-19.7c63.4-0.1,76.7,27.6,30.7,73.8c-44.6,43.5-98.7,75.8-152.3,106.9
							c-72.2,40.7-147.3,76.2-223.7,108.1c-76.6,31.6-154.7,59.8-234.4,82.3c-59.8,16.1-120.9,31.7-183.2,32.6
							c-63.4,0-76.7-27.7-30.6-73.8c32.1-31.2,69.2-56.7,107.4-80c-1.5-6.5-2.6-12.8-3.6-19C1251.4,568.7,1159,648,1175.6,688z"/>
					</defs>
					<clipPath id="SVGID_00000039825700812877347570000003971821093107868288_">
						<use xlink:href="#SVGID_00000167380262724602796750000003270008674610096823_"  style="overflow:visible;"/>
					</clipPath>
					<g style="clip-path:url(#SVGID_00000039825700812877347570000003971821093107868288_);">
						
							<image style="overflow:visible;enable-background:new    ;" width="1415" height="616" xlink:href="50A7DE6E.png"  transform="matrix(1 0 0 1 1002.4392 232.5625)">
						</image>
					</g>
				</g>
			</g>
		</g>
	</g>
</g>
</svg>
